<?xml version="1.0" encoding="UTF-8"?>
<svg version="1.1" xmlns="http://www.w3.org/2000/svg" width="155" height="165">
<path d="M0 0 C0.83362061 -0.03448242 1.66724121 -0.06896484 2.52612305 -0.10449219 C6.41271663 -0.13133712 8.44155054 -0.09419311 11.5703125 2.33984375 C13.71417454 6.61140806 14.39991638 10.73993577 15.125 15.4375 C15.45841922 17.40407445 15.79446439 19.37020507 16.1328125 21.3359375 C16.31094482 22.37911133 16.48907715 23.42228516 16.67260742 24.49707031 C19.61129774 41.37124136 23.94348482 57.76915959 29.3125 74.03515625 C32.19093236 86.08859178 32.65576404 100.83152111 28.125 112.4375 C27.68671875 113.60667969 27.2484375 114.77585937 26.796875 115.98046875 C24.0251244 122.90255118 21.03516432 128.83077748 16.125 134.4375 C15.46757812 135.22511719 14.81015625 136.01273438 14.1328125 136.82421875 C1.96558121 150.96158891 -12.76786219 160.87846272 -31.625 163.1875 C-33.37350478 163.29784253 -35.12405481 163.37720574 -36.875 163.4375 C-38.77378906 163.53224609 -38.77378906 163.53224609 -40.7109375 163.62890625 C-62.21222595 164.39369545 -80.84589046 156.79418859 -96.875 142.4375 C-109.99809853 129.89523017 -114.56500452 118.47160366 -115.15600586 100.46459961 C-115.44832869 81.64943323 -109.36551122 66.86271939 -97.875 52.4375 C-97.215 51.4475 -96.555 50.4575 -95.875 49.4375 C-95.215 49.4375 -94.555 49.4375 -93.875 49.4375 C-93.63394531 48.87289062 -93.39289063 48.30828125 -93.14453125 47.7265625 C-87.97734937 38.40973609 -77.37518716 31.57493137 -68.875 25.4375 C-68.3068457 25.01968262 -67.73869141 24.60186523 -67.15332031 24.17138672 C-52.93455641 13.79671873 -37.01607222 6.47200464 -19.875 2.4375 C-19.07964844 2.21449219 -18.28429687 1.99148437 -17.46484375 1.76171875 C-11.71716139 0.31247466 -5.90005441 0.13948904 0 0 Z " fill="#D836C7" transform="translate(119.875,0.5625)"/>
<path d="M0 0 C0.83362061 -0.03448242 1.66724121 -0.06896484 2.52612305 -0.10449219 C6.41271663 -0.13133712 8.44155054 -0.09419311 11.5703125 2.33984375 C13.71417454 6.61140806 14.39991638 10.73993577 15.125 15.4375 C15.45841922 17.40407445 15.79446439 19.37020507 16.1328125 21.3359375 C16.31094482 22.37911133 16.48907715 23.42228516 16.67260742 24.49707031 C19.61129774 41.37124136 23.94348482 57.76915959 29.3125 74.03515625 C32.19093236 86.08859178 32.65576404 100.83152111 28.125 112.4375 C27.68671875 113.60667969 27.2484375 114.77585937 26.796875 115.98046875 C24.0251244 122.90255118 21.03516432 128.83077748 16.125 134.4375 C15.46757812 135.22511719 14.81015625 136.01273438 14.1328125 136.82421875 C1.96558121 150.96158891 -12.76786219 160.87846272 -31.625 163.1875 C-33.37350478 163.29784253 -35.12405481 163.37720574 -36.875 163.4375 C-38.77378906 163.53224609 -38.77378906 163.53224609 -40.7109375 163.62890625 C-62.21222595 164.39369545 -80.84589046 156.79418859 -96.875 142.4375 C-109.99809853 129.89523017 -114.56500452 118.47160366 -115.15600586 100.46459961 C-115.44832869 81.64943323 -109.36551122 66.86271939 -97.875 52.4375 C-97.215 51.4475 -96.555 50.4575 -95.875 49.4375 C-95.215 49.4375 -94.555 49.4375 -93.875 49.4375 C-93.63394531 48.87289062 -93.39289063 48.30828125 -93.14453125 47.7265625 C-87.97734937 38.40973609 -77.37518716 31.57493137 -68.875 25.4375 C-68.3068457 25.01968262 -67.73869141 24.60186523 -67.15332031 24.17138672 C-52.93455641 13.79671873 -37.01607222 6.47200464 -19.875 2.4375 C-19.07964844 2.21449219 -18.28429687 1.99148437 -17.46484375 1.76171875 C-11.71716139 0.31247466 -5.90005441 0.13948904 0 0 Z M-15.36328125 6.64453125 C-18.5655047 7.65549759 -21.80193474 8.28438634 -25.09765625 8.91015625 C-27.10844434 9.35310231 -27.10844434 9.35310231 -28.875 11.4375 C-30.37698886 11.95425231 -31.90249683 12.4041267 -33.4375 12.8125 C-38.48568946 14.24539221 -43.14280692 16.18570764 -47.875 18.4375 C-47.875 19.0975 -47.875 19.7575 -47.875 20.4375 C-48.59945312 20.54578125 -49.32390625 20.6540625 -50.0703125 20.765625 C-57.26230363 22.48849753 -64.10406305 27.92111456 -69.875 32.4375 C-69.875 33.0975 -69.875 33.7575 -69.875 34.4375 C-70.865 34.4375 -71.855 34.4375 -72.875 34.4375 C-72.875 35.0975 -72.875 35.7575 -72.875 36.4375 C-73.865 36.4375 -74.855 36.4375 -75.875 36.4375 C-75.875 37.0975 -75.875 37.7575 -75.875 38.4375 C-76.535 38.4375 -77.195 38.4375 -77.875 38.4375 C-77.875 39.0975 -77.875 39.7575 -77.875 40.4375 C-78.535 40.4375 -79.195 40.4375 -79.875 40.4375 C-79.875 41.0975 -79.875 41.7575 -79.875 42.4375 C-80.535 42.4375 -81.195 42.4375 -81.875 42.4375 C-81.875 43.0975 -81.875 43.7575 -81.875 44.4375 C-82.535 44.4375 -83.195 44.4375 -83.875 44.4375 C-83.875 45.0975 -83.875 45.7575 -83.875 46.4375 C-84.535 46.4375 -85.195 46.4375 -85.875 46.4375 C-86.205 47.7575 -86.535 49.0775 -86.875 50.4375 C-87.7721875 50.5921875 -87.7721875 50.5921875 -88.6875 50.75 C-91.18758286 51.53574033 -92.25035082 52.40668853 -93.875 54.4375 C-93.875 55.0975 -93.875 55.7575 -93.875 56.4375 C-94.535 56.4375 -95.195 56.4375 -95.875 56.4375 C-98.1523501 59.25259993 -98.1523501 59.25259993 -97.875 62.4375 C-98.535 62.4375 -99.195 62.4375 -99.875 62.4375 C-102.0269437 65.66541555 -102.07586443 66.72150809 -101.875 70.4375 C-102.535 70.4375 -103.195 70.4375 -103.875 70.4375 C-103.875 72.4175 -103.875 74.3975 -103.875 76.4375 C-104.865 76.4375 -105.855 76.4375 -106.875 76.4375 C-109.2646849 82.72338436 -109.24721707 88.49905602 -109.24560547 95.15820312 C-109.2499596 97.16884351 -109.2862802 99.17724965 -109.32421875 101.1875 C-109.35698459 112.15313408 -106.97507737 121.79182756 -99.875 130.4375 C-99.215 130.4375 -98.555 130.4375 -97.875 130.4375 C-97.875 131.0975 -97.875 131.7575 -97.875 132.4375 C-97.215 132.4375 -96.555 132.4375 -95.875 132.4375 C-95.545 133.7575 -95.215 135.0775 -94.875 136.4375 C-93.555 136.4375 -92.235 136.4375 -90.875 136.4375 C-90.875 137.0975 -90.875 137.7575 -90.875 138.4375 C-90.215 138.4375 -89.555 138.4375 -88.875 138.4375 C-88.6275 139.05625 -88.38 139.675 -88.125 140.3125 C-86.66871361 142.78818687 -85.49687494 143.38875002 -82.875 144.4375 C-82.875 145.0975 -82.875 145.7575 -82.875 146.4375 C-81.885 146.4375 -80.895 146.4375 -79.875 146.4375 C-79.875 147.0975 -79.875 147.7575 -79.875 148.4375 C-78.225 148.4375 -76.575 148.4375 -74.875 148.4375 C-74.875 149.0975 -74.875 149.7575 -74.875 150.4375 C-73.555 150.4375 -72.235 150.4375 -70.875 150.4375 C-70.875 151.0975 -70.875 151.7575 -70.875 152.4375 C-61.81308187 156.28195012 -54.32461637 156.71956318 -44.5 156.625 C-43.20449219 156.62435547 -41.90898438 156.62371094 -40.57421875 156.62304688 C-34.8493856 157.15696968 -34.8493856 157.15696968 -29.875 155.4375 C-28.54430004 155.30383594 -27.20993397 155.20611578 -25.875 155.125 C-18.36450665 154.3595994 -12.57617444 151.30026643 -6.875 146.4375 C-5.885 146.1075 -4.895 145.7775 -3.875 145.4375 C-3.875 144.7775 -3.875 144.1175 -3.875 143.4375 C-3.09125 143.19 -2.3075 142.9425 -1.5 142.6875 C1.44817108 141.28360901 2.0274777 140.43074263 3.125 137.4375 C3.785 137.4375 4.445 137.4375 5.125 137.4375 C5.785 135.7875 6.445 134.1375 7.125 132.4375 C8.115 132.4375 9.105 132.4375 10.125 132.4375 C10.125 131.7775 10.125 131.1175 10.125 130.4375 C10.785 130.4375 11.445 130.4375 12.125 130.4375 C13.29654293 128.14820947 14.46238074 125.85631638 15.625 123.5625 C15.95886719 122.91152344 16.29273438 122.26054688 16.63671875 121.58984375 C18.49343717 118.1850529 18.49343717 118.1850529 19.125 114.4375 C19.785 114.4375 20.445 114.4375 21.125 114.4375 C26.88064344 98.91781859 27.07483139 83.57446347 21.4140625 68.015625 C20.49165994 65.45525911 19.76582825 63.10988348 19.1484375 60.484375 C18.49866598 57.72483919 17.66854738 55.18418107 16.6015625 52.55859375 C14.81950682 47.97568451 14.15953485 43.35282747 13.5 38.5 C13.26136267 36.80288243 13.01936197 35.10623319 12.7734375 33.41015625 C12.67208496 32.67031494 12.57073242 31.93047363 12.46630859 31.16821289 C12.28729103 29.41414637 12.28729103 29.41414637 11.125 28.4375 C10.80053663 25.33707227 10.61165559 22.2354275 10.40625 19.125 C10.41892201 16.52153248 10.41892201 16.52153248 9.125 15.4375 C8.89136119 13.58858054 8.71196365 11.73261969 8.5625 9.875 C8.47871094 8.86308594 8.39492187 7.85117188 8.30859375 6.80859375 C8.24800781 6.02613281 8.18742187 5.24367188 8.125 4.4375 C-0.1609318 4.13558346 -7.39998618 4.10913237 -15.36328125 6.64453125 Z " fill="#544654" transform="translate(119.875,0.5625)"/>
<path d="M0 0 C0.66 0 1.32 0 2 0 C2 4.75108933 0.95755221 5.50471102 -2 9 C-2.33 9.99 -2.66 10.98 -3 12 C-2.401875 11.34 -1.80375 10.68 -1.1875 10 C1 8 1 8 4 8 C4 8.66 4 9.32 4 10 C3.05125 10.61875 2.1025 11.2375 1.125 11.875 C-1.82241872 13.87924473 -2.83853833 14.74790731 -4 18 C-4.33 17.67 -4.66 17.34 -5 17 C-5.37511719 17.50789063 -5.75023438 18.01578125 -6.13671875 18.5390625 C-7.74514561 20.70253843 -9.36947273 22.85313909 -11 25 C-11.41765625 25.55816406 -11.8353125 26.11632812 -12.265625 26.69140625 C-14.54187484 29.59741854 -16.56324563 31.33607095 -19.75 33.0625 C-22.41402576 34.84814851 -22.93100622 35.7018339 -23.66796875 38.88671875 C-23.93935626 42.27316284 -24.01623211 45.60343192 -24 49 C-24.03609375 49.80050781 -24.0721875 50.60101563 -24.109375 51.42578125 C-24.33739587 57.66215197 -23.52772059 63.95513024 -22 70 C-21.34 70.66 -20.68 71.32 -20 72 C-19.3671875 73.875 -19.3671875 73.875 -18.875 76 C-18.70742188 76.70125 -18.53984375 77.4025 -18.3671875 78.125 C-18 80 -18 80 -18 82 C-16.35 82.33 -14.7 82.66 -13 83 C-12.505 81.515 -12.505 81.515 -12 80 C-11.34 80 -10.68 80 -10 80 C-8.68373308 83.61973402 -8 86.09567131 -8 90 C-7.01 90 -6.02 90 -5 90 C-5 91.32 -5 92.64 -5 94 C-4.01 94 -3.02 94 -2 94 C-2 92.68 -2 91.36 -2 90 C-1.01 90 -0.02 90 1 90 C3.03435531 93.72965139 4 95.66905042 4 100 C4.99 100 5.98 100 7 100 C7 100.66 7 101.32 7 102 C7.66 102 8.32 102 9 102 C9 102.66 9 103.32 9 104 C9.60328125 103.97679687 10.2065625 103.95359375 10.828125 103.9296875 C11.62734375 103.91164063 12.4265625 103.89359375 13.25 103.875 C14.43335937 103.84019531 14.43335937 103.84019531 15.640625 103.8046875 C18.20731941 104.0171622 19.7916067 104.71345895 22 106 C22 106.66 22 107.32 22 108 C22.99 108.33 23.98 108.66 25 109 C24.505 110.485 24.505 110.485 24 112 C26.31 112 28.62 112 31 112 C31.33 111.34 31.66 110.68 32 110 C32.99 110 33.98 110 35 110 C36.54331122 109.87274451 38.08505622 109.72552336 39.625 109.5625 C40.42164062 109.48128906 41.21828125 109.40007812 42.0390625 109.31640625 C43.99860488 109.19654171 43.99860488 109.19654171 45 108 C46.66617115 107.95936168 48.33388095 107.957279 50 108 C50 108.66 50 109.32 50 110 C51.03125 109.360625 52.0625 108.72125 53.125 108.0625 C55.71680557 106.55454039 57.1382081 105.98103026 60.1875 105.5625 C63.96602276 104.80679545 64.72818133 103.0046634 67 100 C67.78375 99.690625 68.5675 99.38125 69.375 99.0625 C72.63003201 97.74498704 74.27179669 95.83888914 76.5703125 93.2421875 C78 92 78 92 81 92 C80.67 90.68 80.34 89.36 80 88 C81.32 87.34 82.64 86.68 84 86 C84 84.35 84 82.7 84 81 C84.66 80.67 85.32 80.34 86 80 C85.38756458 89.88344059 85.38756458 89.88344059 82 93 C81.34 93 80.68 93 80 93 C79.34 94.65 78.68 96.3 78 98 C77.34 98 76.68 98 76 98 C75.81050781 98.54785156 75.62101562 99.09570312 75.42578125 99.66015625 C73.35049595 103.06589842 70.36427251 105.12837657 67.1875 107.4375 C66.51750977 107.92468506 65.84751953 108.41187012 65.15722656 108.91381836 C53.80055188 116.8975553 40.83578629 120.52210514 27 120 C27 120.66 27 121.32 27 122 C19.21460633 122.32043541 13.12891642 122.24041656 6 119 C4.67309165 118.64194537 3.34073732 118.30217931 2 118 C2 117.34 2 116.68 2 116 C0.68 116 -0.64 116 -2 116 C-2 115.34 -2 114.68 -2 114 C-3.65 114 -5.3 114 -7 114 C-7 113.34 -7 112.68 -7 112 C-7.99 112 -8.98 112 -10 112 C-10 111.34 -10 110.68 -10 110 C-10.61875 109.7525 -11.2375 109.505 -11.875 109.25 C-14.35068687 107.79371361 -14.95125002 106.62187494 -16 104 C-16.66 104 -17.32 104 -18 104 C-18 103.34 -18 102.68 -18 102 C-19.32 102 -20.64 102 -22 102 C-22.33 100.68 -22.66 99.36 -23 98 C-23.66 98 -24.32 98 -25 98 C-25 97.34 -25 96.68 -25 96 C-25.66 96 -26.32 96 -27 96 C-28.65625 93.5859375 -28.65625 93.5859375 -30.5 90.375 C-31.1084375 89.33085938 -31.716875 88.28671875 -32.34375 87.2109375 C-35.16638937 81.73874513 -36.25391941 77.22298688 -36.265625 71.0625 C-36.26820312 69.75539063 -36.27078125 68.44828125 -36.2734375 67.1015625 C-36.26924805 66.42770508 -36.26505859 65.75384766 -36.26074219 65.05957031 C-36.25002899 63.00555897 -36.26066763 60.95242204 -36.2734375 58.8984375 C-36.27085938 57.59132812 -36.26828125 56.28421875 -36.265625 54.9375 C-36.26336914 53.75027344 -36.26111328 52.56304687 -36.25878906 51.33984375 C-35.99429339 47.92635245 -35.22088373 45.18617918 -34 42 C-33.01 42 -32.02 42 -31 42 C-31 40.02 -31 38.04 -31 36 C-30.34 36 -29.68 36 -29 36 C-29.04125 35.236875 -29.0825 34.47375 -29.125 33.6875 C-29 31 -29 31 -27 28 C-26.34 28 -25.68 28 -25 28 C-24.7834375 27.071875 -24.7834375 27.071875 -24.5625 26.125 C-24 24 -24 24 -23 22 C-22.34 22 -21.68 22 -21 22 C-20.71125 21.38125 -20.4225 20.7625 -20.125 20.125 C-19 18 -19 18 -17 16 C-16.01 16 -15.02 16 -14 16 C-13.67 14.68 -13.34 13.36 -13 12 C-12.34 12 -11.68 12 -11 12 C-11 11.34 -11 10.68 -11 10 C-10.34 10 -9.68 10 -9 10 C-9 9.34 -9 8.68 -9 8 C-8.34 8 -7.68 8 -7 8 C-7 7.34 -7 6.68 -7 6 C-6.34 6 -5.68 6 -5 6 C-5 5.34 -5 4.68 -5 4 C-4.34 4 -3.68 4 -3 4 C-3 3.34 -3 2.68 -3 2 C-2.01 2 -1.02 2 0 2 C0 1.34 0 0.68 0 0 Z " fill="#B00AC2" transform="translate(47,35)"/>
<path d="M0 0 C5.83779679 5.57244239 7.02734432 11.78158147 7.3359375 19.57421875 C7.5503897 34.07095181 7.21670647 45.9405991 -1.63671875 58.0234375 C-3.20951254 60.14344579 -3.20951254 60.14344579 -4.375 63.5 C-6.64961037 68.39916079 -9.96089533 72.40877992 -14 76 C-14.99 76 -15.98 76 -17 76 C-17 76.66 -17 77.32 -17 78 C-17.66 78 -18.32 78 -19 78 C-19.4021875 78.8971875 -19.4021875 78.8971875 -19.8125 79.8125 C-21.75780824 83.39596256 -23.98065749 85.21004408 -27.72265625 86.75390625 C-28.42583984 87.05103516 -29.12902344 87.34816406 -29.85351562 87.65429688 C-30.58248047 87.95400391 -31.31144531 88.25371094 -32.0625 88.5625 C-37.43609831 90.6222289 -37.43609831 90.6222289 -42 94 C-44.32817964 94.36760731 -46.6618385 94.70241581 -49 95 C-49.33 95.33 -49.66 95.66 -50 96 C-70.50624023 99.29178533 -88.14860698 98.2242092 -106 87 C-110.62586966 82.77026835 -110.62586966 82.77026835 -112.0625 79.8125 C-112.84365663 77.85568572 -112.84365663 77.85568572 -114.7734375 77.15234375 C-121.12714043 73.86402381 -126.29804473 67.51648037 -129 61 C-129.66 60.34 -130.32 59.68 -131 59 C-131 57.68 -131 56.36 -131 55 C-131.66 55 -132.32 55 -133 55 C-135.01815466 47.47997134 -135.30237349 40.45187029 -135.25 32.6875 C-135.25773438 31.52154297 -135.26546875 30.35558594 -135.2734375 29.15429688 C-135.27085937 28.03474609 -135.26828125 26.91519531 -135.265625 25.76171875 C-135.26336914 24.75069092 -135.26111328 23.73966309 -135.25878906 22.69799805 C-134.99767908 19.97580336 -134.39470048 18.32577038 -133 16 C-132.67 16 -132.34 16 -132 16 C-131.9906543 16.75506836 -131.98130859 17.51013672 -131.97167969 18.28808594 C-131.91733084 21.77600342 -131.83381251 25.26267088 -131.75 28.75 C-131.73582031 29.93722656 -131.72164062 31.12445313 -131.70703125 32.34765625 C-131.41157095 43.16150323 -129.21560086 52.53555781 -122.953125 61.4765625 C-122 63 -122 63 -122 65 C-121.34 65 -120.68 65 -120 65 C-120 65.66 -120 66.32 -120 67 C-119.34 67 -118.68 67 -118 67 C-117.67 68.32 -117.34 69.64 -117 71 C-115.68 71 -114.36 71 -113 71 C-113 71.66 -113 72.32 -113 73 C-112.34 73 -111.68 73 -111 73 C-109.64613064 74.65002828 -108.31321858 76.3174387 -107 78 C-106.34 78.33 -105.68 78.66 -105 79 C-105 79.66 -105 80.32 -105 81 C-104.01 81 -103.02 81 -102 81 C-102 81.66 -102 82.32 -102 83 C-100.35 83 -98.7 83 -97 83 C-97 83.66 -97 84.32 -97 85 C-95.68 85 -94.36 85 -93 85 C-93 85.66 -93 86.32 -93 87 C-91.9790625 87.185625 -91.9790625 87.185625 -90.9375 87.375 C-88 88 -88 88 -85.21484375 89.02734375 C-79.20121041 90.76245593 -72.82212519 90.24714811 -66.625 90.1875 C-65.32949219 90.18685547 -64.03398438 90.18621094 -62.69921875 90.18554688 C-56.9743856 90.71946968 -56.9743856 90.71946968 -52 89 C-50.66930004 88.86633594 -49.33493397 88.76861578 -48 88.6875 C-40.40865169 87.91385941 -34.82263569 84.79511174 -29 80 C-28.01 80 -27.02 80 -26 80 C-26 79.34 -26 78.68 -26 78 C-24.01310269 76.64721885 -22.01254782 75.31431695 -20 74 C-19.67 73.34 -19.34 72.68 -19 72 C-18.34 72 -17.68 72 -17 72 C-16.34 70.35 -15.68 68.7 -15 67 C-14.01 67 -13.02 67 -12 67 C-12 66.34 -12 65.68 -12 65 C-11.34 65 -10.68 65 -10 65 C-9.84724609 64.20335937 -9.84724609 64.20335937 -9.69140625 63.390625 C-8.79691899 60.2978216 -7.40138873 57.61548432 -5.9375 54.75 C-5.38964844 53.67234375 -4.84179688 52.5946875 -4.27734375 51.484375 C-3.85582031 50.66453125 -3.43429688 49.8446875 -3 49 C-2.34 49 -1.68 49 -1 49 C-0.814375 47.4840625 -0.814375 47.4840625 -0.625 45.9375 C0 42 0 42 1.0234375 38.8671875 C2.20028383 34.20687602 2.30045292 29.97016647 2.25 25.1875 C2.24613281 24.3018335 2.24226562 23.41616699 2.23828125 22.50366211 C2.16766212 17.17633129 1.82902278 12.14254992 0.4375 6.97265625 C-0.08626186 4.61105143 -0.06709422 2.41119846 0 0 Z " fill="#281826" transform="translate(142,66)"/>
<path d="M0 0 C0.66 0 1.32 0 2 0 C2 0.66 2 1.32 2 2 C3.65 2 5.3 2 7 2 C7 2.66 7 3.32 7 4 C7.99 4 8.98 4 10 4 C13.52812722 10.14902173 16.07391415 14.84057235 15 22 C12.76345106 26.30742759 10.26546009 29.64038378 6 32 C2.30817847 32.32329511 -1.30472697 32.23297693 -5 32 C-5 31.34 -5 30.68 -5 30 C-5.99 30 -6.98 30 -8 30 C-7.67 28.68 -7.34 27.36 -7 26 C-7.66 26 -8.32 26 -9 26 C-9.99 23.69 -10.98 21.38 -12 19 C-12.66 19.66 -13.32 20.32 -14 21 C-16.28964059 16.05919662 -16.28964059 16.05919662 -15.46484375 13.04296875 C-14.71434788 11.32904563 -13.86320768 9.66001476 -13 8 C-12.34 8 -11.68 8 -11 8 C-11 7.34 -11 6.68 -11 6 C-8.18236593 3.18236593 -6.71433365 2.05391197 -2.6875 1.75 C-1.3571875 1.87375 -1.3571875 1.87375 0 2 C0 1.34 0 0.68 0 0 Z " fill="#E84FD8" transform="translate(102,61)"/>
<path d="M0 0 C2.82504087 3.24094966 3.65980983 6.00155255 4.5 10.1875 C5.28172899 14.03565402 6.2131943 17.6425894 7.56640625 21.3203125 C9.21426833 26.15816177 9.49722995 30.60448148 9.4375 35.6875 C9.43266602 36.98155762 9.43266602 36.98155762 9.42773438 38.30175781 C9.26184637 46.00982965 7.6877217 52.75275041 5 60 C4.34 60 3.68 60 3 60 C2.72414063 60.70511719 2.44828125 61.41023438 2.1640625 62.13671875 C0.97316845 65.0659984 -0.30875136 67.93753586 -1.625 70.8125 C-2.07101563 71.78832031 -2.51703125 72.76414062 -2.9765625 73.76953125 C-3.31429687 74.50558594 -3.65203125 75.24164063 -4 76 C-4.66 76 -5.32 76 -6 76 C-6 76.66 -6 77.32 -6 78 C-6.99 78 -7.98 78 -9 78 C-9.66 79.65 -10.32 81.3 -11 83 C-11.66 83 -12.32 83 -13 83 C-13.226875 83.61875 -13.45375 84.2375 -13.6875 84.875 C-15.37929835 87.61410209 -16.99244161 88.05024472 -20 89 C-20 89.66 -20 90.32 -20 91 C-21.0725 91.598125 -22.145 92.19625 -23.25 92.8125 C-25.33357124 93.99416465 -27.17624407 95.13885897 -29.0625 96.625 C-33.62009343 99.85942114 -38.72898857 100.30941447 -44.14453125 100.75390625 C-46.01307206 100.81040615 -46.01307206 100.81040615 -47 102 C-49.53049402 102.07313567 -52.03304837 102.09247527 -54.5625 102.0625 C-55.27341797 102.05798828 -55.98433594 102.05347656 -56.71679688 102.04882812 C-58.47790013 102.03700864 -60.23896036 102.01907263 -62 102 C-62 101.34 -62 100.68 -62 100 C-60.77925781 99.84144531 -59.55851562 99.68289062 -58.30078125 99.51953125 C-41.27098457 97.17023479 -27.66172886 92.88383757 -15.28125 80.21875 C-13 78 -13 78 -11 78 C-10.34 76.35 -9.68 74.7 -9 73 C-8.34 73 -7.68 73 -7 73 C-6.71125 72.38125 -6.4225 71.7625 -6.125 71.125 C-5 69 -5 69 -3 67 C4.65117415 50.01077865 4.84202243 30.1706079 2 12 C1.34 11.34 0.68 10.68 0 10 C-0.1953125 7.6171875 -0.1953125 7.6171875 -0.125 4.875 C-0.10695312 3.96492188 -0.08890625 3.05484375 -0.0703125 2.1171875 C-0.04710937 1.41851562 -0.02390625 0.71984375 0 0 Z " fill="#EF66DD" transform="translate(136,55)"/>
<path d="M0 0 C2.45223709 2.45223709 2.40348419 3.54332246 2.82421875 6.93359375 C2.96206787 7.96170166 3.09991699 8.98980957 3.24194336 10.04907227 C3.38897705 11.16725342 3.53601074 12.28543457 3.6875 13.4375 C5.92207814 29.13209949 9.48788559 44.62287126 14.52734375 59.66796875 C19.46742124 74.48993518 21.80731977 92.12400335 16 107 C15.34257812 108.75376953 15.34257812 108.75376953 14.671875 110.54296875 C11.9001244 117.46505118 8.91016432 123.39327748 4 129 C3.34257812 129.78761719 2.68515625 130.57523438 2.0078125 131.38671875 C-10.408047 145.81297543 -25.29376873 155.5546246 -44.5 157.8125 C-47.83387075 158.0514093 -50.76375633 157.9708731 -54 157 C-54 156.67 -54 156.34 -54 156 C-53.00097656 155.93941406 -52.00195312 155.87882813 -50.97265625 155.81640625 C-49.68230469 155.73261719 -48.39195313 155.64882812 -47.0625 155.5625 C-45.77472656 155.48128906 -44.48695312 155.40007812 -43.16015625 155.31640625 C-40.13976043 155.35080812 -40.13976043 155.35080812 -39 154 C-37.9275 153.87625 -36.855 153.7525 -35.75 153.625 C-31.89149361 152.9819156 -30.26768144 152.01813515 -27 150 C-24.03877477 148.56857154 -21.07743973 147.14391882 -18.08398438 145.78125 C-13.95266325 143.79821586 -11.71038913 141.64306345 -9 138 C-8.34 138 -7.68 138 -7 138 C-7 137.34 -7 136.68 -7 136 C-6.319375 135.649375 -5.63875 135.29875 -4.9375 134.9375 C1.58381988 130.63620391 5.18828515 124.09623273 8 117 C8.639375 116.13375 9.27875 115.2675 9.9375 114.375 C15.5499644 105.19096734 16.37646045 96.29217255 16.4375 85.75 C16.44749023 84.73244629 16.45748047 83.71489258 16.46777344 82.66650391 C16.37563148 74.59355228 14.68037667 68.15113059 11 61 C11 62.98 11 64.96 11 67 C10.01 66.505 10.01 66.505 9 66 C8.26595217 63.64332012 7.63747204 61.33307403 7.0625 58.9375 C6.01763011 54.76242916 4.98806437 50.6628586 3.3125 46.6875 C1.68994994 42.12890698 1.28552885 37.80476141 1 33 C3 34 3 34 4.125 37.125 C4.97755199 40.90058738 5.15729024 44.14638912 5 48 C5.66 48 6.32 48 7 48 C6.07833743 41.98208554 5.047312 36.07828174 3.5 30.1875 C1.11762436 20.31938568 0.72087329 10.0986971 0 0 Z " fill="#828282" transform="translate(132,6)"/>
<path d="M0 0 C1.05960938 0.00676758 1.05960938 0.00676758 2.140625 0.01367188 C3.88545275 0.02546125 5.630237 0.04339676 7.375 0.0625 C7.43558594 0.84496094 7.49617188 1.62742187 7.55859375 2.43359375 C7.64238281 3.44550781 7.72617188 4.45742187 7.8125 5.5 C7.89371094 6.50933594 7.97492188 7.51867187 8.05859375 8.55859375 C8.10711468 10.99890779 8.10711468 10.99890779 9.375 12.0625 C9.58617147 13.97477495 9.74391707 15.8930714 9.875 17.8125 C10.13952881 21.64816768 10.54049661 25.30723474 11.375 29.0625 C9.89 28.5675 9.89 28.5675 8.375 28.0625 C8.375 23.7725 8.375 19.4825 8.375 15.0625 C7.385 14.7325 6.395 14.4025 5.375 14.0625 C5.375 10.4325 5.375 6.8025 5.375 3.0625 C2.64552356 3.37246259 -0.08355985 3.68537975 -2.8125 4 C-3.58142578 4.08701172 -4.35035156 4.17402344 -5.14257812 4.26367188 C-9.01272828 4.71214421 -12.81686624 5.2154001 -16.625 6.0625 C-16.625 6.7225 -16.625 7.3825 -16.625 8.0625 C-18.605 8.0625 -20.585 8.0625 -22.625 8.0625 C-22.625 8.7225 -22.625 9.3825 -22.625 10.0625 C-27.96335539 11.98721317 -32.97479382 13.46141424 -38.625 14.0625 C-38.625 14.7225 -38.625 15.3825 -38.625 16.0625 C-40.28825538 16.77532373 -41.95184686 17.48737417 -43.6171875 18.1953125 C-44.9207014 18.75830877 -46.21813237 19.33568545 -47.5078125 19.9296875 C-50.87380028 21.45968195 -52.8469607 22.0625 -56.625 22.0625 C-56.625 22.7225 -56.625 23.3825 -56.625 24.0625 C-58.26290712 25.10894066 -59.93508021 26.1023183 -61.625 27.0625 C-62.97131825 28.04494845 -64.30941297 29.03926564 -65.625 30.0625 C-65.625 29.4025 -65.625 28.7425 -65.625 28.0625 C-66.615 27.7325 -67.605 27.4025 -68.625 27.0625 C-54.99859551 16.0625 -54.99859551 16.0625 -48.625 16.0625 C-48.625 15.4025 -48.625 14.7425 -48.625 14.0625 C-43.17735025 11.47026087 -37.82305415 9.40708614 -31.984375 7.87109375 C-29.54062025 7.13842092 -29.54062025 7.13842092 -27.30859375 5.57421875 C-23.97264217 3.69501459 -20.66275421 3.07343088 -16.9375 2.4375 C-3.12748874 -0.03750678 -3.12748874 -0.03750678 0 0 Z " fill="#D80ABF" transform="translate(120.625,4.9375)"/>
<path d="M0 0 C0.99 0 1.98 0 3 0 C2.34 1.98 1.68 3.96 1 6 C0.34 6 -0.32 6 -1 6 C-1.0825 6.825 -1.165 7.65 -1.25 8.5 C-2.01123086 12.05241068 -3.18685303 14.556373 -4.96484375 17.6796875 C-8.17885089 24.88391483 -8.25729492 31.7454826 -8.125 39.5 C-8.11597656 40.51320312 -8.10695313 41.52640625 -8.09765625 42.5703125 C-8.07429007 45.04712801 -8.04153168 47.52343379 -8 50 C-7.34 50 -6.68 50 -6 50 C-5.61908203 51.39025391 -5.61908203 51.39025391 -5.23046875 52.80859375 C-4.88628906 54.00613281 -4.54210937 55.20367187 -4.1875 56.4375 C-3.85105469 57.63246094 -3.51460937 58.82742187 -3.16796875 60.05859375 C-2.78253906 61.02925781 -2.39710937 61.99992187 -2 63 C-1.01 63.33 -0.02 63.66 1 64 C1 65.32 1 66.64 1 68 C1.66 68 2.32 68 3 68 C3 68.66 3 69.32 3 70 C3.66 70 4.32 70 5 70 C5 71.32 5 72.64 5 74 C6.32 74 7.64 74 9 74 C9 75.32 9 76.64 9 78 C8.01 78 7.02 78 6 78 C6 77.34 6 76.68 6 76 C4.68 76 3.36 76 2 76 C1.67 74.68 1.34 73.36 1 72 C0.34 72 -0.32 72 -1 72 C-1 71.34 -1 70.68 -1 70 C-1.66 70 -2.32 70 -3 70 C-4.65625 67.5859375 -4.65625 67.5859375 -6.5 64.375 C-7.1084375 63.33085938 -7.716875 62.28671875 -8.34375 61.2109375 C-11.16638937 55.73874513 -12.25391941 51.22298688 -12.265625 45.0625 C-12.26820312 43.75539062 -12.27078125 42.44828125 -12.2734375 41.1015625 C-12.26924805 40.42770508 -12.26505859 39.75384766 -12.26074219 39.05957031 C-12.25002899 37.00555897 -12.26066763 34.95242204 -12.2734375 32.8984375 C-12.27085938 31.59132813 -12.26828125 30.28421875 -12.265625 28.9375 C-12.26336914 27.75027344 -12.26111328 26.56304687 -12.25878906 25.33984375 C-11.99429339 21.92635245 -11.22088373 19.18617918 -10 16 C-9.01 16 -8.02 16 -7 16 C-7 14.02 -7 12.04 -7 10 C-6.34 10 -5.68 10 -5 10 C-5.061875 8.8553125 -5.061875 8.8553125 -5.125 7.6875 C-5 5 -5 5 -3 2 C-2.01 2 -1.02 2 0 2 C0 1.34 0 0.68 0 0 Z " fill="#B51DB4" transform="translate(23,61)"/>
<path d="M0 0 C0.33 0.66 0.66 1.32 1 2 C3.52733235 2.65555119 3.52733235 2.65555119 6 3 C6.33 2.01 6.66 1.02 7 0 C7.66 0 8.32 0 9 0 C10.31626692 3.61973402 11 6.09567131 11 10 C11.99 10 12.98 10 14 10 C14 11.32 14 12.64 14 14 C14.99 14 15.98 14 17 14 C17 12.68 17 11.36 17 10 C17.99 10 18.98 10 20 10 C22.03435531 13.72965139 23 15.66905042 23 20 C23.99 20 24.98 20 26 20 C26 20.66 26 21.32 26 22 C26.66 22 27.32 22 28 22 C28 22.66 28 23.32 28 24 C28.60328125 23.97679687 29.2065625 23.95359375 29.828125 23.9296875 C31.02695312 23.90261719 31.02695312 23.90261719 32.25 23.875 C33.43335937 23.84019531 33.43335937 23.84019531 34.640625 23.8046875 C37.20731941 24.0171622 38.7916067 24.71345895 41 26 C41 26.66 41 27.32 41 28 C41.99 28.33 42.98 28.66 44 29 C43.505 30.485 43.505 30.485 43 32 C40.66705225 32.04241723 38.33297433 32.04092937 36 32 C35.67 31.67 35.34 31.34 35 31 C33.65252916 30.76924918 32.29622435 30.58846937 30.9375 30.4375 C29.638125 30.293125 28.33875 30.14875 27 30 C27 28.68 27 27.36 27 26 C25.35 26 23.7 26 22 26 C21.67 24.68 21.34 23.36 21 22 C20.01 22 19.02 22 18 22 C18 21.34 18 20.68 18 20 C17.01 20 16.02 20 15 20 C15 19.34 15 18.68 15 18 C14.01 18 13.02 18 12 18 C12 17.34 12 16.68 12 16 C10.68 16 9.36 16 8 16 C7.67 14.68 7.34 13.36 7 12 C6.34 12 5.68 12 5 12 C5 11.34 5 10.68 5 10 C4.34 10 3.68 10 3 10 C0.96564469 6.27034861 0 4.33094958 0 0 Z " fill="#7F2495" transform="translate(28,115)"/>
<path d="M0 0 C0.33 0 0.66 0 1 0 C1.0093457 0.75506836 1.01869141 1.51013672 1.02832031 2.28808594 C1.08266916 5.77600342 1.16618749 9.26267088 1.25 12.75 C1.26417969 13.93722656 1.27835938 15.12445313 1.29296875 16.34765625 C1.58842905 27.16150323 3.78439914 36.53555781 10.046875 45.4765625 C11 47 11 47 11 49 C11.66 49 12.32 49 13 49 C13 49.66 13 50.32 13 51 C13.66 51 14.32 51 15 51 C15.33 52.32 15.66 53.64 16 55 C17.32 55 18.64 55 20 55 C20 55.66 20 56.32 20 57 C20.66 57 21.32 57 22 57 C23.35386936 58.65002828 24.68678142 60.3174387 26 62 C26.66 62.33 27.32 62.66 28 63 C28 63.66 28 64.32 28 65 C28.99 65 29.98 65 31 65 C31 65.66 31 66.32 31 67 C31.99 67 32.98 67 34 67 C34 67.99 34 68.98 34 70 C28.58509109 69.56680729 25.24207578 68.43406135 21 65 C20.505 63.515 20.505 63.515 20 62 C18.67670173 61.31362991 17.34125149 60.65058947 16 60 C10.92652229 55.60357218 6.6016735 51.27462433 4 45 C3.34 44.34 2.68 43.68 2 43 C2 41.68 2 40.36 2 39 C1.34 39 0.68 39 0 39 C-2.01815466 31.47997134 -2.30237349 24.45187029 -2.25 16.6875 C-2.25773438 15.52154297 -2.26546875 14.35558594 -2.2734375 13.15429688 C-2.27085937 12.03474609 -2.26828125 10.91519531 -2.265625 9.76171875 C-2.26336914 8.75069092 -2.26111328 7.73966309 -2.25878906 6.69799805 C-1.99767908 3.97580336 -1.39470048 2.32577038 0 0 Z " fill="#241822" transform="translate(9,82)"/>
<path d="M0 0 C0.66 0 1.32 0 2 0 C2 4.75108933 0.95755221 5.50471102 -2 9 C-2.33 9.99 -2.66 10.98 -3 12 C-2.401875 11.34 -1.80375 10.68 -1.1875 10 C1 8 1 8 4 8 C4 8.66 4 9.32 4 10 C2.576875 10.928125 2.576875 10.928125 1.125 11.875 C-1.82241872 13.87924473 -2.83853833 14.74790731 -4 18 C-4.33 17.67 -4.66 17.34 -5 17 C-5.37511719 17.50789063 -5.75023438 18.01578125 -6.13671875 18.5390625 C-15.60131894 31.26978417 -15.60131894 31.26978417 -20 34 C-20.66 34 -21.32 34 -22 34 C-21.67 31.36 -21.34 28.72 -21 26 C-21.99 26 -22.98 26 -24 26 C-24.33 26.66 -24.66 27.32 -25 28 C-24.49396008 25.83125748 -24.00016187 24.00032373 -23 22 C-22.34 22 -21.68 22 -21 22 C-20.71125 21.38125 -20.4225 20.7625 -20.125 20.125 C-19 18 -19 18 -17 16 C-16.01 16 -15.02 16 -14 16 C-13.67 14.68 -13.34 13.36 -13 12 C-12.34 12 -11.68 12 -11 12 C-11 11.34 -11 10.68 -11 10 C-10.34 10 -9.68 10 -9 10 C-9 9.34 -9 8.68 -9 8 C-8.34 8 -7.68 8 -7 8 C-7 7.34 -7 6.68 -7 6 C-6.34 6 -5.68 6 -5 6 C-5 5.34 -5 4.68 -5 4 C-4.34 4 -3.68 4 -3 4 C-3 3.34 -3 2.68 -3 2 C-2.01 2 -1.02 2 0 2 C0 1.34 0 0.68 0 0 Z M-24 34 C-23.01 34.495 -23.01 34.495 -22 35 C-22.99 35.495 -22.99 35.495 -24 36 C-24 35.34 -24 34.68 -24 34 Z " fill="#B913A9" transform="translate(47,35)"/>
<path d="M0 0 C2.51164389 0.83721463 3.64035272 1.53245854 5.25 3.625 C6.35716216 7.1310135 6.58988315 10.36363172 6 14 C3.80626646 17.42222431 2.41368588 17.90565059 -1.5625 18.8125 C-5 19 -5 19 -8 18 C-9.1875 15.4375 -9.1875 15.4375 -10 13 C-10.66 13 -11.32 13 -12 13 C-12.39549419 9.70421505 -12.68681882 7.09938707 -10.875 4.19921875 C-7.5045204 0.52153398 -5.1411445 -0.89411209 0 0 Z " fill="#F8ACF5" transform="translate(105,68)"/>
<path d="M0 0 C0.33 0 0.66 0 1 0 C0.38756458 9.88344059 0.38756458 9.88344059 -3 13 C-3.66 13 -4.32 13 -5 13 C-5.66 14.65 -6.32 16.3 -7 18 C-7.66 18 -8.32 18 -9 18 C-9.37898438 18.88945312 -9.37898438 18.88945312 -9.765625 19.796875 C-11.88917128 23.58700191 -15.26327321 25.88252148 -19 28 C-22.5 28.375 -22.5 28.375 -25 28 C-25 28.66 -25 29.32 -25 30 C-26.32 30 -27.64 30 -29 30 C-29 30.66 -29 31.32 -29 32 C-32.3 32 -35.6 32 -39 32 C-39 32.66 -39 33.32 -39 34 C-48.9 34 -58.8 34 -69 34 C-69 33.34 -69 32.68 -69 32 C-69.99 32 -70.98 32 -72 32 C-72 31.34 -72 30.68 -72 30 C-71.48953125 30.15339844 -70.9790625 30.30679688 -70.453125 30.46484375 C-67.2250662 31.16905403 -64.04581999 31.34888204 -60.75 31.5625 C-59.48671875 31.64628906 -58.2234375 31.73007813 -56.921875 31.81640625 C-55.47554687 31.90728516 -55.47554687 31.90728516 -54 32 C-53.67 31.34 -53.34 30.68 -53 30 C-52.01 30 -51.02 30 -50 30 C-48.45668878 29.87274451 -46.91494378 29.72552336 -45.375 29.5625 C-44.57835938 29.48128906 -43.78171875 29.40007812 -42.9609375 29.31640625 C-41.00139512 29.19654171 -41.00139512 29.19654171 -40 28 C-38.33382885 27.95936168 -36.66611905 27.957279 -35 28 C-35 28.66 -35 29.32 -35 30 C-33.96875 29.360625 -32.9375 28.72125 -31.875 28.0625 C-29.28319443 26.55454039 -27.8617919 25.98103026 -24.8125 25.5625 C-21.03397724 24.80679545 -20.27181867 23.0046634 -18 20 C-17.21625 19.690625 -16.4325 19.38125 -15.625 19.0625 C-12.36996799 17.74498704 -10.72820331 15.83888914 -8.4296875 13.2421875 C-7 12 -7 12 -4 12 C-4.495 10.02 -4.495 10.02 -5 8 C-3.68 7.34 -2.36 6.68 -1 6 C-1.020625 5.195625 -1.04125 4.39125 -1.0625 3.5625 C-1 1 -1 1 0 0 Z " fill="#9F17A3" transform="translate(132,115)"/>
<path d="M0 0 C0.61328125 1.828125 0.61328125 1.828125 1 4 C-0.8125 6.75 -0.8125 6.75 -3 9 C-3.66 9 -4.32 9 -5 9 C-4.938125 10.11375 -4.938125 10.11375 -4.875 11.25 C-5.00398134 14.08758952 -5.57051222 15.58773938 -7 18 C-6.01 18 -5.02 18 -4 18 C-3.67 16.68 -3.34 15.36 -3 14 C-3 15.98 -3 17.96 -3 20 C-3.99 20 -4.98 20 -6 20 C-6.75770785 24.11481205 -7.17155355 28.09340234 -7.31640625 32.2734375 C-7.35830078 33.42714844 -7.40019531 34.58085938 -7.44335938 35.76953125 C-7.48267578 36.95933594 -7.52199219 38.14914063 -7.5625 39.375 C-7.62727539 41.19451172 -7.62727539 41.19451172 -7.69335938 43.05078125 C-7.79905513 46.03375032 -7.90115321 49.01679742 -8 52 C-8.33 52 -8.66 52 -9 52 C-9.33 43.42 -9.66 34.84 -10 26 C-11.04749296 29.14247888 -11.12915262 31.36651447 -11.1328125 34.6640625 C-11.13410156 35.78683594 -11.13539062 36.90960938 -11.13671875 38.06640625 C-11.13285156 39.24074219 -11.12898437 40.41507813 -11.125 41.625 C-11.12886719 42.77613281 -11.13273438 43.92726562 -11.13671875 45.11328125 C-11.12944312 51.49401035 -10.84958777 57.67529101 -10 64 C-9.34 64 -8.68 64 -8 64 C-7.731875 64.7425 -7.46375 65.485 -7.1875 66.25 C-6.04171138 68.90340523 -4.76815158 70.73676598 -3 73 C-2.608125 73.7425 -2.21625 74.485 -1.8125 75.25 C0.9060659 79.37472067 4.45727685 82.58134109 8 86 C9.0023952 86.99759905 10.00285305 87.99715507 11 89 C11.66 89.66 12.32 90.32 13 91 C8.86386962 91 7.1210918 88.80904998 4.25 86.125 C3.71576416 85.6297583 3.18152832 85.1345166 2.63110352 84.62426758 C-9.60628439 72.97270221 -13.7797175 60.71927581 -14.28759766 44.01611328 C-14.48499283 28.03484517 -10.53279813 12.30636208 0 0 Z " fill="#523851" transform="translate(19,57)"/>
<path d="M0 0 C0.66 0.33 1.32 0.66 2 1 C1.01 2.98 0.02 4.96 -1 7 C-1.99 7 -2.98 7 -4 7 C-4 7.66 -4 8.32 -4 9 C-4.66 9 -5.32 9 -6 9 C-6 9.66 -6 10.32 -6 11 C-6.66 11 -7.32 11 -8 11 C-8 11.66 -8 12.32 -8 13 C-8.66 13 -9.32 13 -10 13 C-10 13.66 -10 14.32 -10 15 C-10.66 15 -11.32 15 -12 15 C-12 15.66 -12 16.32 -12 17 C-12.66 17 -13.32 17 -14 17 C-14.0928125 17.8971875 -14.0928125 17.8971875 -14.1875 18.8125 C-15.32434588 21.8732389 -17.2127103 22.43639846 -20 24 C-20.66 24.99 -21.32 25.98 -22 27 C-22.66 27 -23.32 27 -24 27 C-24.66 28.98 -25.32 30.96 -26 33 C-26.66 33 -27.32 33 -28 33 C-28.66 35.64 -29.32 38.28 -30 41 C-30.99 41 -31.98 41 -33 41 C-33 42.32 -33 43.64 -33 45 C-33.99 45 -34.98 45 -36 45 C-35.34 42.03 -34.68 39.06 -34 36 C-33.34 36 -32.68 36 -32 36 C-30.59258356 33.40169273 -29.54716267 30.77778522 -28.5625 28 C-27.4283142 24.92967883 -26.29991383 22.39991008 -24 20 C-23.34 20 -22.68 20 -22 20 C-21.75894531 19.43539062 -21.51789062 18.87078125 -21.26953125 18.2890625 C-19.74215369 15.53508327 -17.90755784 13.60625141 -15.6875 11.375 C-14.54861328 10.21097656 -14.54861328 10.21097656 -13.38671875 9.0234375 C-10.95359652 6.96065957 -8.963018 6.09315227 -6 5 C-4.20238946 3.75964082 -4.20238946 3.75964082 -2.6875 2.375 C-1.800625 1.59125 -0.91375 0.8075 0 0 Z " fill="#2C1E2C" transform="translate(48,30)"/>
<path d="M0 0 C0.66 0 1.32 0 2 0 C2 0.66 2 1.32 2 2 C2.66 2 3.32 2 4 2 C4 2.66 4 3.32 4 4 C4.66 4 5.32 4 6 4 C6 4.66 6 5.32 6 6 C7.32 6 8.64 6 10 6 C10 6.66 10 7.32 10 8 C11.423125 8.2165625 11.423125 8.2165625 12.875 8.4375 C16 9 16 9 18 10 C18 10.66 18 11.32 18 12 C20.97 12 23.94 12 27 12 C27 12.33 27 12.66 27 13 C29.31 13.33 31.62 13.66 34 14 C34 14.66 34 15.32 34 16 C40.6 16 47.2 16 54 16 C50.38863788 17.80568106 49.455469 18.24851563 45.75 18.125 C44.5125 18.08375 43.275 18.0425 42 18 C42 18.66 42 19.32 42 20 C34.21460633 20.32043541 28.12891642 20.24041656 21 17 C19.67309165 16.64194537 18.34073732 16.30217931 17 16 C17 15.34 17 14.68 17 14 C15.68 14 14.36 14 13 14 C13 13.34 13 12.68 13 12 C11.35 12 9.7 12 8 12 C8 11.34 8 10.68 8 10 C7.01 10 6.02 10 5 10 C5 9.34 5 8.68 5 8 C4.38125 7.7525 3.7625 7.505 3.125 7.25 C0.62673377 5.78043163 -0.06694014 4.71435596 -1 2 C-0.67 1.34 -0.34 0.68 0 0 Z " fill="#C106BF" transform="translate(32,137)"/>
<path d="M0 0 C8.91 0 17.82 0 27 0 C27.433125 3.856875 27.86625 7.71375 28.3125 11.6875 C29.35862544 20.64942338 30.65534657 29.2799968 33 38 C34.37493167 43.48275221 35.24103633 48.33564626 35 54 C34.505 52.02 34.505 52.02 34 50 C33.34 50 32.68 50 32 50 C31.87625 48.989375 31.7525 47.97875 31.625 46.9375 C31.02276896 43.14344446 30.2363237 39.63624616 29 36 C28.34 35.67 27.68 35.34 27 35 C26.62109375 32.96875 26.62109375 32.96875 26.4375 30.5 C26.4207737 27.45018475 26.4207737 27.45018475 25 25 C24.67553663 21.89957227 24.48665559 18.7979275 24.28125 15.6875 C24.29392201 13.08403248 24.29392201 13.08403248 23 12 C22.92773498 10.14712498 22.9161878 8.29166122 22.9375 6.4375 C22.94652344 5.42558594 22.95554687 4.41367188 22.96484375 3.37109375 C22.97644531 2.58863281 22.98804687 1.80617188 23 1 C20.54126232 1.14058476 18.08314825 1.28722999 15.625 1.4375 C14.92632812 1.47681641 14.22765625 1.51613281 13.5078125 1.55664062 C9.62639508 1.74280134 9.62639508 1.74280134 6 3 C3.6670134 3.04022391 1.33293334 3.04320247 -1 3 C-0.67 2.01 -0.34 1.02 0 0 Z " fill="#1A141A" transform="translate(105,4)"/>
<path d="M0 0 C0.81952148 -0.01015137 1.63904297 -0.02030273 2.48339844 -0.03076172 C4.78125 0.00390625 4.78125 0.00390625 8.5 0.4375 C9.16 1.4275 9.82 2.4175 10.5 3.4375 C1.92 3.4375 -6.66 3.4375 -15.5 3.4375 C-15.5 4.7575 -15.5 6.0775 -15.5 7.4375 C-16.34304687 7.63085938 -17.18609375 7.82421875 -18.0546875 8.0234375 C-19.15039062 8.28382812 -20.24609375 8.54421875 -21.375 8.8125 C-22.46554688 9.06773438 -23.55609375 9.32296875 -24.6796875 9.5859375 C-27.60408455 10.22656215 -27.60408455 10.22656215 -29.5 12.4375 C-32.12616685 13.75058343 -33.80547377 14.51466958 -36.75 14.1875 C-38.5 13.4375 -38.5 13.4375 -39.5 11.4375 C-41.52463255 10.78536708 -41.52463255 10.78536708 -43.5 10.4375 C-29.3813894 4.19032717 -15.53888785 0.1387928 0 0 Z " fill="#544F54" transform="translate(120.5,0.5625)"/>
<path d="M0 0 C0 0.66 0 1.32 0 2 C0.8971875 2.433125 0.8971875 2.433125 1.8125 2.875 C4 4 4 4 7 6 C7.83266878 10.63518952 8.1050532 15.81035754 5.9453125 20.08984375 C2.95376198 23.7097969 0.92086601 24.89074471 -3.6875 25.4375 C-8.18299925 25.40474591 -10.3673701 23.607477 -13.5546875 20.60546875 C-15.74631952 18.17098021 -16.93809296 16.46430277 -17.375 13.1875 C-16.77833832 8.11587568 -14.18256664 5.24826478 -10.75 1.625 C-6.9306887 -0.63186577 -4.38747508 -0.29745594 0 0 Z M-11.875 8.19921875 C-13.68681882 11.09938707 -13.39549419 13.70421505 -13 17 C-12.34 17 -11.68 17 -11 17 C-10.34 18.65 -9.68 20.3 -9 22 C-3.39446065 23.16396662 -3.39446065 23.16396662 1.9375 21.6875 C4.08980875 20.16126242 4.08980875 20.16126242 5 18 C5.49692649 11.63205051 5.49692649 11.63205051 3 6 C-2.60101346 1.9992761 -7.53733477 3.4661934 -11.875 8.19921875 Z " fill="#EB7EE1" transform="translate(106,64)"/>
<path d="M0 0 C2.47380874 2.47380874 2.42249419 3.64872982 2.859375 7.07421875 C3.00270264 8.12335449 3.14603027 9.17249023 3.29370117 10.25341797 C3.44427979 11.38666504 3.5948584 12.51991211 3.75 13.6875 C5.17553248 23.77749864 7.25703621 33.43477606 9.98583984 43.24511719 C11.79695168 49.86666431 12.97032613 56.10082453 13 63 C12.34 62.34 11.68 61.68 11 61 C11 62.98 11 64.96 11 67 C10.34 66.67 9.68 66.34 9 66 C8.26595217 63.64332012 7.63747204 61.33307403 7.0625 58.9375 C6.01763011 54.76242916 4.98806437 50.6628586 3.3125 46.6875 C1.68994994 42.12890698 1.28552885 37.80476141 1 33 C3 34 3 34 4.125 37.125 C4.97755199 40.90058738 5.15729024 44.14638912 5 48 C5.66 48 6.32 48 7 48 C6.07833743 41.98208554 5.047312 36.07828174 3.5 30.1875 C1.11762436 20.31938568 0.72087329 10.0986971 0 0 Z " fill="#232123" transform="translate(132,6)"/>
<path d="M0 0 C3.69900008 0.88776002 7.34550461 1.94581864 11 3 C11 2.01 11 1.02 11 0 C11.66 0 12.32 0 13 0 C13 0.66 13 1.32 13 2 C14.32 2 15.64 2 17 2 C17 2.66 17 3.32 17 4 C17.680625 4.12375 18.36125 4.2475 19.0625 4.375 C22.4277412 5.09100877 25.70013425 6.02945125 29 7 C27.02 7.99 27.02 7.99 25 9 C31.25948114 11.13391403 37.42208127 11.58955515 44 12 C44 12.66 44 13.32 44 14 C30.20189215 17.05150462 15.64876242 11.1781563 4 4 C1.609375 1.78125 1.609375 1.78125 0 0 Z " fill="#2D1D2B" transform="translate(32,149)"/>
<path d="M0 0 C0.33 0 0.66 0 1 0 C1.33 2.97 1.66 5.94 2 9 C2.99 9.33 3.98 9.66 5 10 C6.39285153 13.79165139 7.09372776 17.37240626 7.5625 21.375 C7.59793141 24.8036937 7.59793141 24.8036937 9 26 C9.07313567 28.53049402 9.09247527 31.03304837 9.0625 33.5625 C9.05798828 34.27341797 9.05347656 34.98433594 9.04882812 35.71679688 C9.03700864 37.47790013 9.01907263 39.23896036 9 41 C8.01 41.495 8.01 41.495 7 42 C7 41.01 7 40.02 7 39 C6.34 39 5.68 39 5 39 C5 38.34 5 37.68 5 37 C4.01 37 3.02 37 2 37 C-0.32590854 33.36576791 -0.16265833 30.22911669 0 26 C0.99 25.67 1.98 25.34 3 25 C2.5601671 22.21439163 2.09868708 19.44522186 1.48828125 16.69140625 C0.23398836 10.98926623 -0.18834119 5.83857684 0 0 Z " fill="#F829E8" transform="translate(127,24)"/>
<path d="M0 0 C0.99 0 1.98 0 3 0 C2.34 1.98 1.68 3.96 1 6 C0.34 6 -0.32 6 -1 6 C-1.0825 6.825 -1.165 7.65 -1.25 8.5 C-2.01123086 12.05241068 -3.18685303 14.556373 -4.96484375 17.6796875 C-8.00981344 24.50501578 -8.29002905 31.02528627 -8.1875 38.375 C-8.1865332 39.72658203 -8.1865332 39.72658203 -8.18554688 41.10546875 C-8.31266824 45.70758134 -8.31266824 45.70758134 -7 50 C-6.960008 51.99960012 -6.95653201 54.00047242 -7 56 C-7.66 56 -8.32 56 -9 56 C-10.5500709 51.86160316 -11.25573729 48.42126027 -11.265625 44.0078125 C-11.26820312 42.89019531 -11.27078125 41.77257812 -11.2734375 40.62109375 C-11.26570312 39.46738281 -11.25796875 38.31367187 -11.25 37.125 C-11.25773438 35.97902344 -11.26546875 34.83304688 -11.2734375 33.65234375 C-11.25908145 27.41463986 -10.84705834 21.96629163 -9 16 C-8.34 16 -7.68 16 -7 16 C-7 14.02 -7 12.04 -7 10 C-6.34 10 -5.68 10 -5 10 C-5.061875 8.8553125 -5.061875 8.8553125 -5.125 7.6875 C-5 5 -5 5 -3 2 C-2.01 2 -1.02 2 0 2 C0 1.34 0 0.68 0 0 Z " fill="#F510F6" transform="translate(23,61)"/>
<path d="M0 0 C1.32 0.33 2.64 0.66 4 1 C-9.40714898 12.2447056 -24.39482234 10.57985202 -41 10 C-41 9.34 -41 8.68 -41 8 C-39.68 8 -38.36 8 -37 8 C-37 7.34 -37 6.68 -37 6 C-29.41 6 -21.82 6 -14 6 C-14 5.34 -14 4.68 -14 4 C-10.7 4 -7.4 4 -4 4 C-4 3.34 -4 2.68 -4 2 C-2.68 2 -1.36 2 0 2 C0 1.34 0 0.68 0 0 Z " fill="#B209BF" transform="translate(107,143)"/>
<path d="M0 0 C6.68604257 6.68604257 7.25914536 13.74577087 7.32226562 22.79492188 C7.31904297 23.83197266 7.31582031 24.86902344 7.3125 25.9375 C7.32861328 26.97068359 7.34472656 28.00386719 7.36132812 29.06835938 C7.36521512 35.20591988 7.22530736 41.58242621 4 47 C1.8918457 48.24194336 1.8918457 48.24194336 0 49 C0.30893932 47.3743193 0.6222695 45.74947252 0.9375 44.125 C1.11152344 43.22007813 1.28554687 42.31515625 1.46484375 41.3828125 C2 39 2 39 3 37 C3.15306901 35.18828902 3.24946661 33.3716206 3.31640625 31.5546875 C3.35830078 30.47832031 3.40019531 29.40195313 3.44335938 28.29296875 C3.50233398 26.60107422 3.50233398 26.60107422 3.5625 24.875 C3.60568359 23.73933594 3.64886719 22.60367188 3.69335938 21.43359375 C3.7996604 18.62252232 3.90169405 15.81136055 4 13 C3.01 12.67 2.02 12.34 1 12 C0.67 8.04 0.34 4.08 0 0 Z " fill="#1D1D1D" transform="translate(142,66)"/>
<path d="M0 0 C1.05960938 0.00676758 1.05960938 0.00676758 2.140625 0.01367188 C3.88545275 0.02546125 5.630237 0.04339676 7.375 0.0625 C7.43558594 0.84496094 7.49617188 1.62742187 7.55859375 2.43359375 C7.64238281 3.44550781 7.72617188 4.45742187 7.8125 5.5 C7.89371094 6.50933594 7.97492188 7.51867187 8.05859375 8.55859375 C8.10711468 10.99890779 8.10711468 10.99890779 9.375 12.0625 C9.58617147 13.97477495 9.74391707 15.8930714 9.875 17.8125 C10.13952881 21.64816768 10.54049661 25.30723474 11.375 29.0625 C10.385 28.7325 9.395 28.4025 8.375 28.0625 C8.375 23.7725 8.375 19.4825 8.375 15.0625 C7.385 14.7325 6.395 14.4025 5.375 14.0625 C5.375 10.4325 5.375 6.8025 5.375 3.0625 C1.89432563 3.31954372 -1.58385606 3.59270749 -5.0625 3.875 C-6.03638672 3.94525391 -7.01027344 4.01550781 -8.01367188 4.08789062 C-13.61423246 4.55616492 -18.45525447 5.41703598 -23.67211914 7.5456543 C-26.00082215 8.16196437 -27.36783471 7.81804046 -29.625 7.0625 C-25.58712788 4.26644929 -21.70416728 3.25120848 -16.9375 2.4375 C-3.12748874 -0.03750678 -3.12748874 -0.03750678 0 0 Z " fill="#770768" transform="translate(120.625,4.9375)"/>
<path d="M0 0 C0.99 0.66 1.98 1.32 3 2 C6.16738117 20.35599262 5.84770962 41.2932933 -3 58 C-4.43088528 55.13822943 -3.59991697 53.06624227 -3 50 C-4.485 50.495 -4.485 50.495 -6 51 C-6 50.01 -6 49.02 -6 48 C-5.01 47.34 -4.02 46.68 -3 46 C0.52333984 40.78023727 0.32297455 36.05278224 0 30 C0.66 30 1.32 30 2 30 C2.25195074 18.3130656 2.25195074 18.3130656 0.4375 6.8125 C-0.11763599 4.5126509 -0.06544772 2.35611782 0 0 Z " fill="#F612C5" transform="translate(136,65)"/>
<path d="M0 0 C0 0.99 0 1.98 0 3 C-1.7015625 3.2165625 -1.7015625 3.2165625 -3.4375 3.4375 C-6.80777201 3.61171478 -6.80777201 3.61171478 -8 5 C-10.01964199 5.07244053 -12.04167124 5.08377188 -14.0625 5.0625 C-15.16722656 5.05347656 -16.27195312 5.04445312 -17.41015625 5.03515625 C-18.26480469 5.02355469 -19.11945313 5.01195312 -20 5 C-20.33 5.66 -20.66 6.32 -21 7 C-21 6.34 -21 5.68 -21 5 C-21.7734375 5.03480469 -22.546875 5.06960937 -23.34375 5.10546875 C-30.03712905 5.27943033 -34.91030021 4.81063067 -41 2 C-41 1.67 -41 1.34 -41 1 C-39.42532959 1.00785522 -39.42532959 1.00785522 -37.81884766 1.01586914 C-33.93132375 1.03394239 -30.04380356 1.04544054 -26.15625 1.05493164 C-24.47232438 1.05996653 -22.78840314 1.06679481 -21.10449219 1.07543945 C-18.68683797 1.08754196 -16.26924144 1.09323668 -13.8515625 1.09765625 C-13.0963028 1.10281754 -12.34104309 1.10797882 -11.56289673 1.11329651 C-7.40939922 1.11374431 -4.08030281 0 0 0 Z " fill="#130411" transform="translate(97,156)"/>
<path d="M0 0 C3.5 0.1875 3.5 0.1875 5.5 1.1875 C5.6953125 7.2421875 5.6953125 7.2421875 5.5 9.1875 C3.5 11.1875 3.5 11.1875 0 11.4375 C-3.5 11.1875 -3.5 11.1875 -5.5 9.1875 C-5.75 5.6875 -5.75 5.6875 -5.5 2.1875 C-3.5 0.1875 -3.5 0.1875 0 0 Z " fill="#FDD6FC" transform="translate(102.5,71.8125)"/>
<path d="M0 0 C0.66 0 1.32 0 2 0 C2.08849232 3.77068057 2.14088454 7.54108765 2.1875 11.3125 C2.22520508 12.8912793 2.22520508 12.8912793 2.26367188 14.50195312 C2.33106579 21.80296086 1.29669107 28.0702245 -1 35 C-0.01 34.505 -0.01 34.505 1 34 C0.28889779 39.86659324 -2.76989397 44.15484096 -6 49 C-6.99 49 -7.98 49 -9 49 C-8.42415568 46.61435923 -7.77772405 44.33317216 -7 42 C-6.34 42 -5.68 42 -5 42 C-5 40.02 -5 38.04 -5 36 C-4.34 36 -3.68 36 -3 36 C-2.87625 34.989375 -2.7525 33.97875 -2.625 32.9375 C-2 29 -2 29 -0.96875 25.96875 C0.51362759 20.91261497 0.2133396 15.78472947 0.125 10.5625 C0.11146484 9.03592773 0.11146484 9.03592773 0.09765625 7.47851562 C0.07424698 4.98542844 0.041457 2.49284141 0 0 Z " fill="#3E2139" transform="translate(144,79)"/>
<path d="M0 0 C2.82504087 3.24094966 3.65980983 6.00155255 4.5 10.1875 C5.27992389 14.0267682 6.20840723 17.61089224 7.57421875 21.2734375 C9.31350353 26.36044164 9.41137179 31.10237814 9.3125 36.4375 C9.31572266 37.33404297 9.31894531 38.23058594 9.32226562 39.15429688 C9.26773841 45.73226159 9.26773841 45.73226159 7 48 C7.01160156 46.78441406 7.02320313 45.56882813 7.03515625 44.31640625 C7.04453278 42.73177236 7.05363313 41.14713682 7.0625 39.5625 C7.07087891 38.76005859 7.07925781 37.95761719 7.08789062 37.13085938 C7.0965143 35.08704779 7.0522815 33.04316098 7 31 C6.67 30.67 6.34 30.34 6 30 C5.95936168 28.33382885 5.957279 26.66611905 6 25 C5.34 25 4.68 25 4 25 C3.87882813 24.08476563 3.75765625 23.16953125 3.6328125 22.2265625 C3.46523437 21.03804687 3.29765625 19.84953125 3.125 18.625 C2.96257812 17.44164063 2.80015625 16.25828125 2.6328125 15.0390625 C2.2697415 11.90433341 2.2697415 11.90433341 0 10 C-0.1953125 7.6171875 -0.1953125 7.6171875 -0.125 4.875 C-0.10695312 3.96492188 -0.08890625 3.05484375 -0.0703125 2.1171875 C-0.04710937 1.41851562 -0.02390625 0.71984375 0 0 Z " fill="#B268A8" transform="translate(136,55)"/>
<path d="M0 0 C0.74056641 0.00902344 1.48113281 0.01804688 2.24414062 0.02734375 C4.05873467 0.05075787 5.87316071 0.08662385 7.6875 0.125 C7.3575 0.785 7.0275 1.445 6.6875 2.125 C4.44223532 2.30426852 2.18947261 2.39311465 -0.0625 2.4375 C-5.65446601 2.58153842 -5.65446601 2.58153842 -10.125 5.625 C-10.846875 6.45 -11.56875 7.275 -12.3125 8.125 C-15.30475974 8.84744627 -18.24082934 9.05138698 -21.3125 9.125 C-21.3125 9.785 -21.3125 10.445 -21.3125 11.125 C-23.2925 11.785 -25.2725 12.445 -27.3125 13.125 C-27.203125 11.3515625 -27.203125 11.3515625 -26.3125 9.125 C-23.546875 7.2734375 -23.546875 7.2734375 -20.0625 5.5 C-18.92296875 4.90960938 -17.7834375 4.31921875 -16.609375 3.7109375 C-15.52140625 3.18757813 -14.4334375 2.66421875 -13.3125 2.125 C-12.51972656 1.72796875 -11.72695313 1.3309375 -10.91015625 0.921875 C-7.27885421 -0.19208833 -3.75594304 -0.08726945 0 0 Z " fill="#E92CD9" transform="translate(74.3125,36.875)"/>
<path d="M0 0 C1.2606863 2.52137261 0.91481107 3.78315715 0.5625 6.5625 C-0.41692404 15.5706237 -0.23759943 24.14628869 2 33 C2.66 33.66 3.32 34.32 4 35 C4.71927295 37.31765729 5.3909893 39.65095874 6 42 C4.515 42.495 4.515 42.495 3 43 C-1.77046473 32.11592998 -6.9899398 16.27863946 -3.16796875 4.41796875 C-2.0625 2.5 -2.0625 2.5 0 0 Z " fill="#9D11AF" transform="translate(23,72)"/>
<path d="M0 0 C0.99 0.33 1.98 0.66 3 1 C2.04956626 2.33897583 1.08940853 3.67105427 0.125 5 C-0.40867187 5.7425 -0.94234375 6.485 -1.4921875 7.25 C-2.23855469 8.11625 -2.23855469 8.11625 -3 9 C-3.66 9 -4.32 9 -5 9 C-5.66 10.98 -6.32 12.96 -7 15 C-7.66 15 -8.32 15 -9 15 C-9.66 17.64 -10.32 20.28 -11 23 C-11.99 23 -12.98 23 -14 23 C-14 24.32 -14 25.64 -14 27 C-14.99 27 -15.98 27 -17 27 C-16.34 24.03 -15.68 21.06 -15 18 C-14.34 18 -13.68 18 -13 18 C-12.731875 17.46375 -12.46375 16.9275 -12.1875 16.375 C-11.795625 15.59125 -11.40375 14.8075 -11 14 C-10.319375 12.5459375 -10.319375 12.5459375 -9.625 11.0625 C-8.00271257 8.00511215 -6.37191527 5.52015998 -4 3 C-3.01 3 -2.02 3 -1 3 C-0.67 2.01 -0.34 1.02 0 0 Z " fill="#120C12" transform="translate(29,48)"/>
<path d="M0 0 C0.66 0 1.32 0 2 0 C2 0.66 2 1.32 2 2 C3.65 2 5.3 2 7 2 C7 2.66 7 3.32 7 4 C7.99 4 8.98 4 10 4 C11.06775224 5.96466413 12.06553465 7.96855359 13 10 C12.67 10.66 12.34 11.32 12 12 C10.8553125 10.824375 10.8553125 10.824375 9.6875 9.625 C7.09108195 6.92742283 7.09108195 6.92742283 4 5 C4 4.34 4 3.68 4 3 C-2.5027492 3.3363491 -5.42563427 4.3167208 -10 9 C-12.57193882 12.55172504 -12.57417708 16.74177085 -13 21 C-15 18 -15 18 -16 15 C-15.07796291 12.63477442 -14.08301035 10.29598193 -13 8 C-12.34 8 -11.68 8 -11 8 C-11 7.34 -11 6.68 -11 6 C-8.18236593 3.18236593 -6.71433365 2.05391197 -2.6875 1.75 C-1.3571875 1.87375 -1.3571875 1.87375 0 2 C0 1.34 0 0.68 0 0 Z " fill="#E94BD7" transform="translate(102,61)"/>
<path d="M0 0 C0.33 0 0.66 0 1 0 C1 10.23 1 20.46 1 31 C-2 28 -2 28 -2.37231445 25.51977539 C-2.3693335 24.55547607 -2.36635254 23.59117676 -2.36328125 22.59765625 C-2.36231445 21.01500977 -2.36231445 21.01500977 -2.36132812 19.40039062 C-2.34521484 18.29888672 -2.32910156 17.19738281 -2.3125 16.0625 C-2.31572266 14.96486328 -2.31894531 13.86722656 -2.32226562 12.73632812 C-2.26238286 3.81379543 -2.26238286 3.81379543 0 0 Z " fill="#030303" transform="translate(9,82)"/>
<path d="M0 0 C3.31163065 2.48372299 3.95627414 3.69877743 4.5625 7.875 C4.3409043 12.61714788 2.3276241 14.75160504 -1 18 C-4.20417721 19.6020886 -7.52339432 19.49285215 -11 19 C-14.44312714 16.8755173 -15.71617547 15.85147359 -17 12 C-17.06740865 10.43881572 -17.08514456 8.8749748 -17.0625 7.3125 C-17.05347656 6.50425781 -17.04445313 5.69601563 -17.03515625 4.86328125 C-17.02355469 4.24839844 -17.01195313 3.63351563 -17 3 C-16.01 3 -15.02 3 -14 3 C-14.33 3.33 -14.66 3.66 -15 4 C-15.36760731 6.32817964 -15.70241581 8.6618385 -16 11 C-15.34 11 -14.68 11 -14 11 C-13.34 12.65 -12.68 14.3 -12 16 C-7.07872966 16.16682272 -3.49656104 16.24828052 1 14 C1.027193 12.41676312 1.04648306 10.83338938 1.0625 9.25 C1.07410156 8.36828125 1.08570312 7.4865625 1.09765625 6.578125 C1.00826198 4.2181162 0.66912821 2.25501476 0 0 Z " fill="#EF8CE6" transform="translate(109,70)"/>
<path d="M0 0 C9.57 0 19.14 0 29 0 C25.38863788 1.80568106 24.455469 2.24851563 20.75 2.125 C18.89375 2.063125 18.89375 2.063125 17 2 C17 2.66 17 3.32 17 4 C14.91695462 4.05418326 12.83350232 4.09287551 10.75 4.125 C9.00976562 4.15980469 9.00976562 4.15980469 7.234375 4.1953125 C4.17213954 4.0103949 2.55797249 3.60823023 0 2 C0 1.34 0 0.68 0 0 Z " fill="#CC04C9" transform="translate(57,153)"/>
<path d="M0 0 C-0.33 0.66 -0.66 1.32 -1 2 C-2.32 2 -3.64 2 -5 2 C-5 2.66 -5 3.32 -5 4 C-6.98 4 -8.96 4 -11 4 C-11 4.66 -11 5.32 -11 6 C-16.33835539 7.92471317 -21.34979382 9.39891424 -27 10 C-27 10.66 -27 11.32 -27 12 C-28.32 11.67 -29.64 11.34 -31 11 C-29.36587557 9.29159719 -28.13093906 8.06546953 -26 7 C-24.00039988 6.960008 -21.99952758 6.95653201 -20 7 C-20 6.01 -20 5.02 -20 4 C-19.16855469 3.79503906 -18.33710937 3.59007812 -17.48046875 3.37890625 C-16.39378906 3.10949219 -15.30710937 2.84007812 -14.1875 2.5625 C-12.56908203 2.16224609 -12.56908203 2.16224609 -10.91796875 1.75390625 C-3.73846349 -0.10103955 -3.73846349 -0.10103955 0 0 Z " fill="#EB0BC3" transform="translate(109,9)"/>
<path d="M0 0 C0.66 0.33 1.32 0.66 2 1 C1.34 1.66 0.68 2.32 0 3 C0.66 3.66 1.32 4.32 2 5 C-0.75927344 7.75927344 -3.21154052 7.51783243 -7 8 C-7.33 8.33 -7.66 8.66 -8 9 C-10.52596259 9.23653523 -13.03107207 9.42173692 -15.5625 9.5625 C-16.27341797 9.60568359 -16.98433594 9.64886719 -17.71679688 9.69335938 C-19.47761912 9.79971777 -21.2387832 9.90038846 -23 10 C-23 9.34 -23 8.68 -23 8 C-21.71802734 7.90912109 -21.71802734 7.90912109 -20.41015625 7.81640625 C-19.30542969 7.73261719 -18.20070313 7.64882812 -17.0625 7.5625 C-15.96035156 7.48128906 -14.85820313 7.40007812 -13.72265625 7.31640625 C-11.08890097 7.29581916 -11.08890097 7.29581916 -10 6 C-7.66702567 5.95907063 -5.33294775 5.95758277 -3 6 C-3 5.01 -3 4.02 -3 3 C-3.76570313 3.32742187 -4.53140625 3.65484375 -5.3203125 3.9921875 C-10.2331039 5.33772909 -14.80978999 5.21422457 -19.875 5.125 C-20.84953125 5.11597656 -21.8240625 5.10695312 -22.828125 5.09765625 C-25.21900728 5.07421623 -27.60937261 5.04140442 -30 5 C-30 4.67 -30 4.34 -30 4 C-29.42967041 3.97494385 -28.85934082 3.9498877 -28.27172852 3.92407227 C-25.70173843 3.80843451 -23.13214473 3.68556376 -20.5625 3.5625 C-19.66466797 3.52318359 -18.76683594 3.48386719 -17.84179688 3.44335938 C-16.98779297 3.40146484 -16.13378906 3.35957031 -15.25390625 3.31640625 C-14.46314697 3.27974854 -13.6723877 3.24309082 -12.85766602 3.20532227 C-10.98598559 3.19436743 -10.98598559 3.19436743 -10 2 C-7.68182911 1.67902249 -5.36220643 1.48779044 -3.03125 1.28125 C-1.00819407 1.20934163 -1.00819407 1.20934163 0 0 Z " fill="#342D33" transform="translate(100,153)"/>
<path d="M0 0 C2 3 2 3 2 5 C2.66 5 3.32 5 4 5 C4.268125 5.7425 4.53625 6.485 4.8125 7.25 C5.95828862 9.90340523 7.23184842 11.73676598 9 14 C9.391875 14.7425 9.78375 15.485 10.1875 16.25 C12.9060659 20.37472067 16.45727685 23.58134109 20 27 C21.0023952 27.99759905 22.00285305 28.99715507 23 30 C23.66 30.66 24.32 31.32 25 32 C20.86386962 32 19.1210918 29.80904998 16.25 27.125 C15.71576416 26.6297583 15.18152832 26.1345166 14.63110352 25.62426758 C8.38653022 19.67863159 0.39629334 11.07649791 -0.1875 2.125 C-0.125625 1.42375 -0.06375 0.7225 0 0 Z " fill="#878887" transform="translate(7,116)"/>
<path d="M0 0 C0.66 0 1.32 0 2 0 C1.44695658 3.87130392 0.0333676 5.57330592 -3 8 C-7.95522379 10.75080865 -12.22209119 12.59260603 -18 12 C-14.7467448 6.64169731 -8.79121276 3.93040425 -3 2 C-2.01 2 -1.02 2 0 2 C0 1.34 0 0.68 0 0 Z " fill="#120E11" transform="translate(117,145)"/>
<path d="M0 0 C0.33 0 0.66 0 1 0 C0.38756458 9.88344059 0.38756458 9.88344059 -3 13 C-3.66 13 -4.32 13 -5 13 C-5.66 14.65 -6.32 16.3 -7 18 C-7.66 18 -8.32 18 -9 18 C-9.226875 18.5775 -9.45375 19.155 -9.6875 19.75 C-11.34848222 22.59739809 -13.31524561 24.12067193 -16 26 C-16.66 26 -17.32 26 -18 26 C-18 25.34 -18 24.68 -18 24 C-17.34 24 -16.68 24 -16 24 C-16 23.34 -16 22.68 -16 22 C-15.34 22 -14.68 22 -14 22 C-13.89429687 21.40703125 -13.78859375 20.8140625 -13.6796875 20.203125 C-12.90592401 17.69506404 -11.98153209 16.57882266 -10.125 14.75 C-9.61195312 14.22921875 -9.09890625 13.7084375 -8.5703125 13.171875 C-7 12 -7 12 -4 12 C-4.33 10.68 -4.66 9.36 -5 8 C-3.68 7.34 -2.36 6.68 -1 6 C-1.020625 5.195625 -1.04125 4.39125 -1.0625 3.5625 C-1 1 -1 1 0 0 Z " fill="#CD0FAD" transform="translate(132,115)"/>
<path d="M0 0 C2.95360757 0.63433183 5.39025724 1.59951825 8.0625 3 C10.39883016 4.21973475 12.4830547 5.16101823 15 6 C15.33 6.66 15.66 7.32 16 8 C25.2190758 11.57694742 34.1869726 12.70173169 44 13 C44 13.33 44 13.66 44 14 C30.20189215 17.05150462 15.64876242 11.1781563 4 4 C1.609375 1.78125 1.609375 1.78125 0 0 Z " fill="#858585" transform="translate(32,149)"/>
<path d="M0 0 C0.33 0.66 0.66 1.32 1 2 C3.02463255 2.65213292 3.02463255 2.65213292 5 3 C5 3.66 5 4.32 5 5 C4.37351562 5.15855469 3.74703125 5.31710938 3.1015625 5.48046875 C0.63141322 6.1856691 -1.67253596 6.90900123 -4 8 C-5.43923199 10.50995496 -5.43923199 10.50995496 -6 13 C-6.99 13.33 -7.98 13.66 -9 14 C-9.95651196 11.41741772 -10.03620881 10.1349601 -9.3125 7.4375 C-7.17251978 3.46325101 -3.99831522 1.85636064 0 0 Z " fill="#E650CF" transform="translate(58,65)"/>
<path d="M0 0 C0.66 0 1.32 0 2 0 C0.92598892 2.91517292 0.22189824 4.77810176 -2 7 C-2.12375 7.639375 -2.2475 8.27875 -2.375 8.9375 C-3.21696615 11.71598829 -4.56108587 12.52187022 -7 14 C-7.66 14 -8.32 14 -9 14 C-8.67 11.36 -8.34 8.72 -8 6 C-8.99 6 -9.98 6 -11 6 C-11.33 6.66 -11.66 7.32 -12 8 C-11.49396008 5.83125748 -11.00016187 4.00032373 -10 2 C-9.34 2 -8.68 2 -8 2 C-7.67 2.99 -7.34 3.98 -7 5 C-4.55519921 4.81171228 -4.55519921 4.81171228 -2 4 C-0.63979849 2.03241727 -0.63979849 2.03241727 0 0 Z M-11 14 C-10.01 14.495 -10.01 14.495 -9 15 C-9.99 15.495 -9.99 15.495 -11 16 C-11 15.34 -11 14.68 -11 14 Z " fill="#981398" transform="translate(34,55)"/>
<path d="M0 0 C2.5328556 2.5328556 2.48058679 3.94364324 2.96484375 7.4609375 C3.12533203 8.57339844 3.28582031 9.68585937 3.45117188 10.83203125 C3.61166016 12.00121094 3.77214844 13.17039062 3.9375 14.375 C5.02687763 22.23824429 6.31844514 29.82452179 8.51391602 37.46337891 C9.01291575 40.06740061 8.86606779 41.5250014 8 44 C1.97239455 30.10897018 0.64083759 14.98234081 0 0 Z " fill="#8C8C8C" transform="translate(132,6)"/>
<path d="M0 0 C-1.09462676 3.1744176 -1.98177335 3.98914157 -4.9375 5.75 C-8 7 -8 7 -11 7 C-11 7.66 -11 8.32 -11 9 C-13.31 9 -15.62 9 -18 9 C-17.03628506 6.59071265 -16.34789837 5.23992991 -14.1875 3.75 C-11.67678635 2.88918389 -9.63651351 2.85352703 -7 3 C-7 2.01 -7 1.02 -7 0 C-2.25 -1.125 -2.25 -1.125 0 0 Z " fill="#340733" transform="translate(83,12)"/>
<path d="M0 0 C-1.14339844 0.33773438 -2.28679687 0.67546875 -3.46484375 1.0234375 C-4.95585157 1.47355307 -6.44673041 1.92409603 -7.9375 2.375 C-8.69224609 2.59671875 -9.44699219 2.8184375 -10.22460938 3.046875 C-12.16847912 3.63962452 -14.08686452 4.31451172 -16 5 C-16.33 5.66 -16.66 6.32 -17 7 C-15.35 7 -13.7 7 -12 7 C-13 9 -13 9 -15.3125 10.1875 C-18.12969376 11.03920974 -19.32564053 11.14615406 -22 10 C-22.33 9.34 -22.66 8.68 -23 8 C-25.02463255 7.34786708 -25.02463255 7.34786708 -27 7 C-5.86591979 -1.75083009 -5.86591979 -1.75083009 0 0 Z " fill="#6B5469" transform="translate(104,4)"/>
<path d="M0 0 C0.33 0.66 0.66 1.32 1 2 C3.52733235 2.65555119 3.52733235 2.65555119 6 3 C6.33 2.01 6.66 1.02 7 0 C7.66 0 8.32 0 9 0 C10.31626692 3.61973402 11 6.09567131 11 10 C10.34 10 9.68 10 9 10 C9 9.34 9 8.68 9 8 C8.34 8 7.68 8 7 8 C7 9.32 7 10.64 7 12 C6.34 12 5.68 12 5 12 C5 11.34 5 10.68 5 10 C4.34 10 3.68 10 3 10 C0.96564469 6.27034861 0 4.33094958 0 0 Z " fill="#881DA4" transform="translate(28,115)"/>
<path d="M0 0 C-0.5625 1.9375 -0.5625 1.9375 -2 4 C-5.5625 4.6875 -5.5625 4.6875 -9 5 C-9.33 5.33 -9.66 5.66 -10 6 C-12.53049402 6.07313567 -15.03304837 6.09247527 -17.5625 6.0625 C-18.27341797 6.05798828 -18.98433594 6.05347656 -19.71679688 6.04882812 C-21.47790013 6.03700864 -23.23896036 6.01907263 -25 6 C-25 5.34 -25 4.68 -25 4 C-24.44014404 3.91435791 -23.88028809 3.82871582 -23.3034668 3.74047852 C-20.76438792 3.35051939 -18.22594632 2.95655484 -15.6875 2.5625 C-14.80642578 2.42779297 -13.92535156 2.29308594 -13.01757812 2.15429688 C-12.17001953 2.02216797 -11.32246094 1.89003906 -10.44921875 1.75390625 C-9.27879028 1.57323608 -9.27879028 1.57323608 -8.0847168 1.38891602 C-0.63967357 0 -0.63967357 0 0 0 Z " fill="#E047DB" transform="translate(99,151)"/>
<path d="M0 0 C1.32 0.33 2.64 0.66 4 1 C-1.96159027 6.18591867 -10.23593721 10.32901649 -18.3125 10.3125 C-19.6428125 10.1578125 -19.6428125 10.1578125 -21 10 C-21 9.67 -21 9.34 -21 9 C-20.21625 8.9175 -19.4325 8.835 -18.625 8.75 C-17.75875 8.5025 -16.8925 8.255 -16 8 C-15.34 6.68 -14.68 5.36 -14 4 C-10.7 4 -7.4 4 -4 4 C-4 3.34 -4 2.68 -4 2 C-2.68 2 -1.36 2 0 2 C0 1.34 0 0.68 0 0 Z " fill="#C60BC3" transform="translate(107,143)"/>
<path d="M0 0 C1.32 0 2.64 0 4 0 C4 0.66 4 1.32 4 2 C3.34 2 2.68 2 2 2 C2 2.66 2 3.32 2 4 C1.34 4 0.68 4 0 4 C-0.33 5.32 -0.66 6.64 -1 8 C-2.98 8 -4.96 8 -7 8 C-7 8.66 -7 9.32 -7 10 C-8.32 10 -9.64 10 -11 10 C-11 10.66 -11 11.32 -11 12 C-12.65 12 -14.3 12 -16 12 C-15.05370568 9.6342642 -14.38343203 8.26018602 -12.25 6.8125 C-10 6 -10 6 -7 5.6875 C-3.13404043 4.80155093 -2.35698277 3.0640776 0 0 Z " fill="#B211A1" transform="translate(114,135)"/>
<path d="M0 0 C1.485 0.99 1.485 0.99 3 2 C4.28440643 9.25355541 4.18322439 16.58771977 4.1875 23.9375 C4.19974609 25.07251953 4.21199219 26.20753906 4.22460938 27.37695312 C4.22654297 28.45783203 4.22847656 29.53871094 4.23046875 30.65234375 C4.23457764 31.63195068 4.23868652 32.61155762 4.24291992 33.62084961 C4 36 4 36 2 38 C2.00523682 37.40574219 2.01047363 36.81148437 2.01586914 36.19921875 C2.03685591 33.4661569 2.04972845 30.7331121 2.0625 28 C2.07087891 27.06542969 2.07925781 26.13085938 2.08789062 25.16796875 C2.10960259 18.9583464 1.99349877 12.86360633 0.4375 6.8125 C-0.11763599 4.5126509 -0.06544772 2.35611782 0 0 Z " fill="#F71FD0" transform="translate(136,65)"/>
<path d="M0 0 C4.92081737 4.92081737 4.92081737 4.92081737 5.22705078 9.09448242 C5.21657715 10.33560791 5.20610352 11.5767334 5.1953125 12.85546875 C5.1924826 13.51710526 5.18965271 14.17874176 5.18673706 14.86042786 C5.17555918 16.96963737 5.15045981 19.07841925 5.125 21.1875 C5.11496707 22.61913448 5.10584176 24.05077564 5.09765625 25.48242188 C5.07562795 28.98841977 5.04111485 32.49416813 5 36 C4.67 36 4.34 36 4 36 C4 28.41 4 20.82 4 13 C3.01 12.67 2.02 12.34 1 12 C0.67 8.04 0.34 4.08 0 0 Z " fill="#030303" transform="translate(142,66)"/>
<path d="M0 0 C-0.97303513 2.49242689 -1.60134655 3.75983758 -3.92578125 5.16015625 C-14.22169524 9.05271948 -23.97703304 12.06525115 -35 10 C-35 9.67 -35 9.34 -35 9 C-34.00097656 8.93941406 -33.00195312 8.87882813 -31.97265625 8.81640625 C-30.03712891 8.69072266 -30.03712891 8.69072266 -28.0625 8.5625 C-26.77472656 8.48128906 -25.48695312 8.40007812 -24.16015625 8.31640625 C-21.13976043 8.35080812 -21.13976043 8.35080812 -20 7 C-18.9275 6.87625 -17.855 6.7525 -16.75 6.625 C-12.95995448 5.99332575 -11.14303051 5.09535367 -8 3 C-2.33333333 0 -2.33333333 0 0 0 Z " fill="#838383" transform="translate(113,153)"/>
<path d="M0 0 C0.33 1.32 0.66 2.64 1 4 C0.34 4 -0.32 4 -1 4 C-1.144375 4.598125 -1.28875 5.19625 -1.4375 5.8125 C-1.8872439 7.56150404 -2.42892341 9.28677023 -3 11 C-2.01 11 -1.02 11 0 11 C-1.37184347 15.06498881 -3.22068459 17.67396561 -6.125 20.8125 C-6.84945312 21.60269531 -7.57390625 22.39289063 -8.3203125 23.20703125 C-8.87460938 23.79871094 -9.42890625 24.39039063 -10 25 C-10 21.00095031 -8.27413033 19.19799578 -6 16 C-6.66 16 -7.32 16 -8 16 C-8 15.34 -8 14.68 -8 14 C-7.34 14 -6.68 14 -6 14 C-5.88785156 13.44828125 -5.77570313 12.8965625 -5.66015625 12.328125 C-4.88639227 9.59934789 -3.73182306 7.27227057 -2.4375 4.75 C-1.98246094 3.85796875 -1.52742187 2.9659375 -1.05859375 2.046875 C-0.70925781 1.37140625 -0.35992187 0.6959375 0 0 Z " fill="#3D303B" transform="translate(138,117)"/>
<path d="M0 0 C0.99 0 1.98 0 3 0 C2.34 1.98 1.68 3.96 1 6 C0.34 6 -0.32 6 -1 6 C-1.103125 6.9075 -1.20625 7.815 -1.3125 8.75 C-2.00414949 12.01961575 -2.82134921 13.53717737 -5 16 C-5 15.34 -5 14.68 -5 14 C-5.66 14 -6.32 14 -7 14 C-7 12.68 -7 11.36 -7 10 C-6.34 10 -5.68 10 -5 10 C-5.04125 9.236875 -5.0825 8.47375 -5.125 7.6875 C-5 5 -5 5 -3 2 C-2.01 2 -1.02 2 0 2 C0 1.34 0 0.68 0 0 Z " fill="#D01BD0" transform="translate(23,61)"/>
<path d="M0 0 C0.144375 0.639375 0.28875 1.27875 0.4375 1.9375 C0.81007181 3.97545146 0.81007181 3.97545146 2 5 C2.33 5 2.66 5 3 5 C3 7.31 3 9.62 3 12 C3.99 12 4.98 12 6 12 C5.67 13.65 5.34 15.3 5 17 C4.67 16.01 4.34 15.02 4 14 C3.34 14 2.68 14 2 14 C2 13.34 2 12.68 2 12 C1.01 12 0.02 12 -1 12 C-3.32590854 8.36576791 -3.16265833 5.22911669 -3 1 C-2.01 0.67 -1.02 0.34 0 0 Z " fill="#F60FED" transform="translate(130,49)"/>
<path d="M0 0 C0.33 0.66 0.66 1.32 1 2 C0.67 2.66 0.34 3.32 0 4 C0.66 4 1.32 4 2 4 C2 3.34 2 2.68 2 2 C2.66 2 3.32 2 4 2 C4 1.34 4 0.68 4 0 C5.65 0 7.3 0 9 0 C8.25 2.4375 8.25 2.4375 7 5 C4.9375 5.6875 4.9375 5.6875 3 6 C2.67 6.66 2.34 7.32 2 8 C0.68 8 -0.64 8 -2 8 C-2.33 8.66 -2.66 9.32 -3 10 C-3.66 9.34 -4.32 8.68 -5 8 C-3.8141763 4.62496331 -2.72426311 2.35277269 0 0 Z " fill="#B213AD" transform="translate(30,51)"/>
<path d="M0 0 C1.27617188 0.02320313 2.55234375 0.04640625 3.8671875 0.0703125 C5.78917969 0.09738281 5.78917969 0.09738281 7.75 0.125 C9.23113281 0.15980469 9.23113281 0.15980469 10.7421875 0.1953125 C10.7421875 3.1653125 10.7421875 6.1353125 10.7421875 9.1953125 C11.7321875 9.5253125 12.7221875 9.8553125 13.7421875 10.1953125 C13.80277344 11.00355469 13.86335938 11.81179687 13.92578125 12.64453125 C14.05146484 14.24748047 14.05146484 14.24748047 14.1796875 15.8828125 C14.30150391 17.46642578 14.30150391 17.46642578 14.42578125 19.08203125 C14.70670431 21.84617547 15.14375602 24.48476991 15.7421875 27.1953125 C14.7521875 26.8653125 13.7621875 26.5353125 12.7421875 26.1953125 C12.7421875 21.9053125 12.7421875 17.6153125 12.7421875 13.1953125 C11.7521875 12.8653125 10.7621875 12.5353125 9.7421875 12.1953125 C9.7421875 8.5653125 9.7421875 4.9353125 9.7421875 1.1953125 C4.7921875 1.5253125 -0.1578125 1.8553125 -5.2578125 2.1953125 C-3.2578125 0.1953125 -3.2578125 0.1953125 0 0 Z " fill="#C90AAB" transform="translate(116.2578125,6.8046875)"/>
<path d="M0 0 C0.33 0 0.66 0 1 0 C1.61922351 6.06839039 1.14904491 9.80664444 -2.61328125 14.6875 C-5.65934945 17.5705392 -9.25081999 17.10482989 -13.1875 17.0625 C-14.81751953 17.04896484 -14.81751953 17.04896484 -16.48046875 17.03515625 C-17.31191406 17.02355469 -18.14335938 17.01195313 -19 17 C-18.67 15.68 -18.34 14.36 -18 13 C-18.66 13 -19.32 13 -20 13 C-20 12.34 -20 11.68 -20 11 C-16.125 12.875 -16.125 12.875 -15 14 C-12.06771337 14.29322866 -9.85508117 14.50004247 -7 14 C-4.03949126 11.70800597 -4.03949126 11.70800597 -2 9 C-1.67 8.67 -1.34 8.34 -1 8 C-0.76924918 6.65252916 -0.58846937 5.29622435 -0.4375 3.9375 C-0.293125 2.638125 -0.14875 1.33875 0 0 Z " fill="#E973DC" transform="translate(113,74)"/>
<path d="M0 0 C0.87591797 0.31710938 0.87591797 0.31710938 1.76953125 0.640625 C-2.98046875 4.640625 -2.98046875 4.640625 -5.23046875 4.640625 C-5.23046875 5.300625 -5.23046875 5.960625 -5.23046875 6.640625 C-6.30296875 7.23875 -7.37546875 7.836875 -8.48046875 8.453125 C-10.56099837 9.62835431 -12.33178446 10.72559946 -14.16796875 12.265625 C-17.30471459 14.3567889 -20.55851647 14.84503534 -24.23046875 15.640625 C-21.7743284 11.83360746 -21.7743284 11.83360746 -19.29296875 10.953125 C-18.61234375 10.85 -17.93171875 10.746875 -17.23046875 10.640625 C-16.11671875 10.3621875 -16.11671875 10.3621875 -14.98046875 10.078125 C-14.11421875 9.8615625 -14.11421875 9.8615625 -13.23046875 9.640625 C-13.23046875 8.980625 -13.23046875 8.320625 -13.23046875 7.640625 C-12.24046875 7.640625 -11.25046875 7.640625 -10.23046875 7.640625 C-9.90046875 6.650625 -9.57046875 5.660625 -9.23046875 4.640625 C-7.7421875 3.21875 -7.7421875 3.21875 -5.91796875 1.890625 C-5.02658203 1.21773437 -5.02658203 1.21773437 -4.1171875 0.53125 C-2.23046875 -0.359375 -2.23046875 -0.359375 0 0 Z " fill="#CE6DC9" transform="translate(121.23046875,139.359375)"/>
<path d="M0 0 C1.32 0 2.64 0 4 0 C2.66666667 2.66666667 1.33333333 5.33333333 0 8 C-0.66 8 -1.32 8 -2 8 C-2 8.66 -2 9.32 -2 10 C-3.32 10 -4.64 10 -6 10 C-6 10.66 -6 11.32 -6 12 C-6.66 12 -7.32 12 -8 12 C-8 12.66 -8 13.32 -8 14 C-8.66 14 -9.32 14 -10 14 C-9.67 12.68 -9.34 11.36 -9 10 C-8.34 10 -7.68 10 -7 10 C-6.67 8.68 -6.34 7.36 -6 6 C-5.34 6 -4.68 6 -4 6 C-4 5.34 -4 4.68 -4 4 C-3.34 4 -2.68 4 -2 4 C-2 3.34 -2 2.68 -2 2 C-1.34 2 -0.68 2 0 2 C0 1.34 0 0.68 0 0 Z " fill="#CD11CB" transform="translate(40,41)"/>
<path d="M0 0 C0.66 0.33 1.32 0.66 2 1 C0 4 0 4 -3 5 C-3.33 5.99 -3.66 6.98 -4 8 C-5.63064764 9.05771739 -7.30280873 10.05273046 -9 11 C-10.34631825 11.98244845 -11.68441297 12.97676564 -13 14 C-13 13.34 -13 12.68 -13 12 C-13.99 11.67 -14.98 11.34 -16 11 C-10.89341984 6.87768132 -5.91301263 2.89616945 0 0 Z " fill="#BA12AB" transform="translate(68,21)"/>
<path d="M0 0 C0.33 0 0.66 0 1 0 C4.18325437 8.40025459 4.13487795 17.57501552 1 26 C0.67 26 0.34 26 0 26 C0 17.42 0 8.84 0 0 Z " fill="#EC92E1" transform="translate(141,80)"/>
<path d="M0 0 C0.66 0 1.32 0 2 0 C4.93850661 8.28658865 7.37692677 16.14222087 7 25 C6.67 23.68 6.34 22.36 6 21 C5.34 21 4.68 21 4 21 C3.896875 20.01 3.79375 19.02 3.6875 18 C3.28941242 15.1021566 2.54254386 12.64277247 1.4375 9.9375 C0.06204366 6.5122131 -0.27921864 3.72291516 0 0 Z " fill="#0A070A" transform="translate(133,33)"/>
<path d="M0 0 C0 0.66 0 1.32 0 2 C0.8971875 2.433125 0.8971875 2.433125 1.8125 2.875 C4 4 4 4 7 6 C6.67 7.32 6.34 8.64 6 10 C5.1028125 8.515 5.1028125 8.515 4.1875 7 C2.3032089 4.72157351 1.32755975 4.06777098 -1.60546875 3.4609375 C-6.29727601 3.32163958 -9.15460988 3.46955914 -13.1875 6 C-13.785625 6.66 -14.38375 7.32 -15 8 C-12.07344732 0.55059317 -7.28471916 -0.49387927 0 0 Z " fill="#EC67DE" transform="translate(106,64)"/>
<path d="M0 0 C2 1 2 1 3.0625 4.0625 C3.79423697 6.82366373 4.23542648 9.53865935 4.5625 12.375 C4.59793141 15.8036937 4.59793141 15.8036937 6 17 C6.04063832 18.66617115 6.042721 20.33388095 6 22 C5.34 22 4.68 22 4 22 C0.28271731 15.19018801 -0.28255173 7.62889683 0 0 Z " fill="#E468DC" transform="translate(130,33)"/>
<path d="M0 0 C2.5 0.125 2.5 0.125 3.5 1.125 C3.21269945 3.46444736 2.88063221 5.7989143 2.5 8.125 C0.85 8.125 -0.8 8.125 -2.5 8.125 C-2.88063221 5.7989143 -3.21269945 3.46444736 -3.5 1.125 C-2.5 0.125 -2.5 0.125 0 0 Z " fill="#FDF6FE" transform="translate(102.5,72.875)"/>
<path d="M0 0 C2.43818936 3.65728405 2.6716692 6.93287895 3.125 11.1875 C3.21136719 11.93708984 3.29773438 12.68667969 3.38671875 13.45898438 C3.59838382 15.30517412 3.80015464 17.15249344 4 19 C3.34 18.34 2.68 17.68 2 17 C2 18.98 2 20.96 2 23 C1.34 22.67 0.68 22.34 0 22 C-0.6328125 19.93359375 -0.6328125 19.93359375 -1.125 17.4375 C-1.29257813 16.61121094 -1.46015625 15.78492187 -1.6328125 14.93359375 C-1.75398437 14.29550781 -1.87515625 13.65742187 -2 13 C-1.34 13 -0.68 13 0 13 C0 8.71 0 4.42 0 0 Z " fill="#564E54" transform="translate(141,50)"/>
<path d="M0 0 C0.66 0.33 1.32 0.66 2 1 C1.52949219 1.39832031 1.05898437 1.79664063 0.57421875 2.20703125 C-0.04839844 2.73683594 -0.67101562 3.26664063 -1.3125 3.8125 C-1.92738281 4.33457031 -2.54226562 4.85664063 -3.17578125 5.39453125 C-5.01489473 6.95288786 -5.01489473 6.95288786 -6.54296875 8.69921875 C-8 10 -8 10 -11 10 C-11 10.66 -11 11.32 -11 12 C-13.91765 13.9451 -15.62537285 14.45276317 -19 15 C-19.33 14.34 -19.66 13.68 -20 13 C-19.09121094 12.5978125 -19.09121094 12.5978125 -18.1640625 12.1875 C-11.3049572 8.97954921 -5.73647262 4.91872014 0 0 Z " fill="#E741E1" transform="translate(119,137)"/>
<path d="M0 0 C0.97582031 0.00902344 1.95164062 0.01804687 2.95703125 0.02734375 C3.69308594 0.03894531 4.42914063 0.05054688 5.1875 0.0625 C4.8575 1.3825 4.5275 2.7025 4.1875 4.0625 C-1.0925 3.7325 -6.3725 3.4025 -11.8125 3.0625 C-11.4825 2.4025 -11.1525 1.7425 -10.8125 1.0625 C-7.19111734 0.03976493 -3.74515244 -0.04512232 0 0 Z " fill="#F312D1" transform="translate(120.8125,7.9375)"/>
<path d="M0 0 C2.16874252 0.50603992 3.99967627 0.99983813 6 2 C6 2.66 6 3.32 6 4 C6.99 4 7.98 4 9 4 C9 4.66 9 5.32 9 6 C9.99 6 10.98 6 12 6 C12 6.99 12 7.98 12 9 C7.2292071 8.56629155 3.36635741 6.35665609 0 3 C0 2.01 0 1.02 0 0 Z " fill="#0C050A" transform="translate(31,143)"/>
<path d="M0 0 C0.33 0 0.66 0 1 0 C1.12117188 0.84304687 1.24234375 1.68609375 1.3671875 2.5546875 C1.53476562 3.65039062 1.70234375 4.74609375 1.875 5.875 C2.03742187 6.96554688 2.19984375 8.05609375 2.3671875 9.1796875 C2.76256513 12.11932714 2.76256513 12.11932714 5 14 C5.71927295 16.31765729 6.3909893 18.65095874 7 21 C6.01 21.33 5.02 21.66 4 22 C0.29278005 14.51935975 -0.51345509 8.30085731 0 0 Z " fill="#931AAB" transform="translate(22,93)"/>
<path d="M0 0 C0.99 0.33 1.98 0.66 3 1 C2.44687265 5.02992782 1.8441938 9.02022924 1 13 C0.34 13 -0.32 13 -1 13 C-1.33 13.66 -1.66 14.32 -2 15 C-3.31534494 11.34142468 -2.65468309 8.91973519 -1.5625 5.25 C-1.27503906 4.26515625 -0.98757812 3.2803125 -0.69140625 2.265625 C-0.46324219 1.51796875 -0.23507813 0.7703125 0 0 Z " fill="#D584C9" transform="translate(140,102)"/>
<path d="M0 0 C1.24546405 2.49092811 0.7767578 3.41080733 0 6 C-0.66 6 -1.32 6 -2 6 C-2.103125 6.825 -2.20625 7.65 -2.3125 8.5 C-3.11646056 12.59289012 -4.46352158 16.12540225 -6 20 C-6.66 20 -7.32 20 -8 20 C-8.33 20.66 -8.66 21.32 -9 22 C-8.53523009 17.35230087 -7.14103317 13.96409749 -4.9375 9.9296875 C-3.98367761 7.96640309 -3.45422913 6.12919904 -3 4 C-2.34 4 -1.68 4 -1 4 C-0.67 2.68 -0.34 1.36 0 0 Z " fill="#BC06CA" transform="translate(25,63)"/>
<path d="M0 0 C0.61328125 1.828125 0.61328125 1.828125 1 4 C-0.8125 6.75 -0.8125 6.75 -3 9 C-3.66 9 -4.32 9 -5 9 C-4.896875 9.721875 -4.79375 10.44375 -4.6875 11.1875 C-5.12449065 15.12041589 -7.10082197 16.46321923 -10 19 C-8.1148286 11.56703846 -4.62212575 6.06574858 0 0 Z " fill="#6E6E6E" transform="translate(19,57)"/>
<path d="M0 0 C0 4.49170405 -2.12135264 6.984064 -5 10.3125 C-7 12 -7 12 -10 12 C-10.268125 12.61875 -10.53625 13.2375 -10.8125 13.875 C-12 16 -12 16 -15 18 C-13.79618552 15.50638429 -12.54571278 13.31856917 -11 11 C-10.34 11 -9.68 11 -9 11 C-8.74476562 10.41734375 -8.48953125 9.8346875 -8.2265625 9.234375 C-6.88258913 6.78611777 -5.38189704 5.18256752 -3.375 3.25 C-2.74335937 2.63640625 -2.11171875 2.0228125 -1.4609375 1.390625 C-0.73777344 0.70226563 -0.73777344 0.70226563 0 0 Z " fill="#797979" transform="translate(35,39)"/>
<path d="M0 0 C0.33 0 0.66 0 1 0 C1.36504603 1.58086048 1.71660506 3.16483907 2.0625 4.75 C2.25972656 5.63171875 2.45695313 6.5134375 2.66015625 7.421875 C2.99825872 9.98679028 2.81158635 11.57091639 2 14 C2 13.34 2 12.68 2 12 C1.34 12 0.68 12 0 12 C0 13.98 0 15.96 0 18 C-0.33 18 -0.66 18 -1 18 C-1.09087891 17.11248047 -1.09087891 17.11248047 -1.18359375 16.20703125 C-1.62012371 12.09021792 -2.08671346 8.04455467 -3 4 C-2.01 4.495 -2.01 4.495 -1 5 C-0.67 3.35 -0.34 1.7 0 0 Z " fill="#231C22" transform="translate(133,21)"/>
<path d="M0 0 C0.99 0.33 1.98 0.66 3 1 C2.21625 1.5775 1.4325 2.155 0.625 2.75 C-4.24297184 6.92254729 -4.38603488 10.86034884 -5 17 C-7 14 -7 14 -8 11 C-7.07796291 8.63477442 -6.08301035 6.29598193 -5 4 C-4.34 4 -3.68 4 -3 4 C-3 3.34 -3 2.68 -3 2 C-2.01 1.34 -1.02 0.68 0 0 Z " fill="#E45DD8" transform="translate(94,65)"/>
<path d="M0 0 C0.66 0 1.32 0 2 0 C1.39254603 4.85963179 -0.72758967 8.7405518 -3 13 C-4.32 13 -5.64 13 -7 13 C-5.84826645 10.53199953 -4.95216435 8.95216435 -3 7 C-1.96157435 4.68351201 -0.9578025 2.35096976 0 0 Z " fill="#E884DA" transform="translate(136,115)"/>
<path d="M0 0 C7.59 0 15.18 0 23 0 C23 0.33 23 0.66 23 1 C21.41058594 1.09087891 21.41058594 1.09087891 19.7890625 1.18359375 C18.40102779 1.26800127 17.01300768 1.35264917 15.625 1.4375 C14.92632812 1.47681641 14.22765625 1.51613281 13.5078125 1.55664062 C9.62639508 1.74280134 9.62639508 1.74280134 6 3 C3.6670134 3.04022391 1.33293334 3.04320247 -1 3 C-0.67 2.01 -0.34 1.02 0 0 Z " fill="#010101" transform="translate(105,4)"/>
<path d="M0 0 C0.99 0.33 1.98 0.66 3 1 C3 1.66 3 2.32 3 3 C3.66 3 4.32 3 5 3 C5 3.66 5 4.32 5 5 C5.66 5 6.32 5 7 5 C6.67 6.32 6.34 7.64 6 9 C4.68 9 3.36 9 2 9 C1.34 6.03 0.68 3.06 0 0 Z " fill="#7B2299" transform="translate(34,122)"/>
<path d="M0 0 C0.99 0 1.98 0 3 0 C2.49516338 4.34159496 1.68099266 7.49408652 -1 11 C-1.99 11 -2.98 11 -4 11 C-3.42415568 8.61435923 -2.77772405 6.33317216 -2 4 C-1.34 4 -0.68 4 0 4 C0 2.68 0 1.36 0 0 Z " fill="#0D090C" transform="translate(139,117)"/>
<path d="M0 0 C-1.69179328 2.04219706 -2.63727666 2.91793306 -5.26171875 3.51171875 C-6.06222656 3.56972656 -6.86273438 3.62773437 -7.6875 3.6875 C-8.49574219 3.75324219 -9.30398437 3.81898437 -10.13671875 3.88671875 C-11.05904297 3.94279297 -11.05904297 3.94279297 -12 4 C-11.67 3.01 -11.34 2.02 -11 1 C-6.95637513 -0.8380113 -4.26550147 -1.25455926 0 0 Z " fill="#160B15" transform="translate(99,7)"/>
<path d="M0 0 C0.99 0.33 1.98 0.66 3 1 C2.50168276 4.68754757 1.89932357 6.60490662 -1 9 C-1.66 8.67 -2.32 8.34 -3 8 C-2.01 6.35 -1.02 4.7 0 3 C-0.66 3 -1.32 3 -2 3 C-2 3.66 -2 4.32 -2 5 C-3.98 5.66 -5.96 6.32 -8 7 C-7.34 6.01 -6.68 5.02 -6 4 C-5.01 4 -4.02 4 -3 4 C-3 3.34 -3 2.68 -3 2 C-2.01 1.34 -1.02 0.68 0 0 Z " fill="#442E43" transform="translate(119,142)"/>
<path d="M0 0 C2 2 2 2 2.1953125 4.8203125 C2.16050781 6.45613281 2.16050781 6.45613281 2.125 8.125 C2.10695313 9.22070312 2.08890625 10.31640625 2.0703125 11.4453125 C2.04710937 12.28835937 2.02390625 13.13140625 2 14 C-0 12.25 -0 12.25 -2 10 C-2 8.68 -2 7.36 -2 6 C-1.34 6 -0.68 6 0 6 C0 4.02 0 2.04 0 0 Z " fill="#CF1AD0" transform="translate(16,111)"/>
<path d="M0 0 C-0.33 0.99 -0.66 1.98 -1 3 C-2.64034193 3.72904086 -4.31301918 4.38655243 -6 5 C-6.86625 5.53625 -7.7325 6.0725 -8.625 6.625 C-11 8 -11 8 -14 8 C-13.67 6.35 -13.34 4.7 -13 3 C-12.34 3 -11.68 3 -11 3 C-11 3.66 -11 4.32 -11 5 C-9.02 4.34 -7.04 3.68 -5 3 C-5 2.34 -5 1.68 -5 1 C-2 0 -2 0 0 0 Z " fill="#E223C9" transform="translate(58,45)"/>
<path d="M0 0 C2 3 2 3 2 5 C2.66 5 3.32 5 4 5 C4.268125 5.7425 4.53625 6.485 4.8125 7.25 C5.94229421 9.86636554 7.20893202 11.80187111 9 14 C8.67 14.66 8.34 15.32 8 16 C3.61918534 11.97438652 0.21306363 8.26697562 -0.1875 2.125 C-0.125625 1.42375 -0.06375 0.7225 0 0 Z " fill="#7D7D7C" transform="translate(7,116)"/>
<path d="M0 0 C1.01911045 3.89114901 1.16782969 5.60596507 -0.4375 9.375 C-0.953125 10.24125 -1.46875 11.1075 -2 12 C-3.43088528 9.13822943 -2.59991697 7.06624227 -2 4 C-2.99 4.33 -3.98 4.66 -5 5 C-5 4.01 -5 3.02 -5 2 C-2 0 -2 0 0 0 Z " fill="#F127C3" transform="translate(135,111)"/>
<path d="M0 0 C0.66 0 1.32 0 2 0 C2 5.30479934 0.4637943 6.18982627 -3 10 C-3.66 9.67 -4.32 9.34 -5 9 C-4.34 8.01 -3.68 7.02 -3 6 C-3.66 6 -4.32 6 -5 6 C-5 5.34 -5 4.68 -5 4 C-4.34 4 -3.68 4 -3 4 C-3 3.34 -3 2.68 -3 2 C-2.01 2 -1.02 2 0 2 C0 1.34 0 0.68 0 0 Z " fill="#C217BA" transform="translate(47,35)"/>
<path d="M0 0 C1.32 0 2.64 0 4 0 C4 0.66 4 1.32 4 2 C3.34 2 2.68 2 2 2 C2 2.66 2 3.32 2 4 C1.34 4 0.68 4 0 4 C-0.33 5.32 -0.66 6.64 -1 8 C-2.32 8 -3.64 8 -5 8 C-3.62901008 5.04709864 -2.22467373 2.39580248 0 0 Z " fill="#BE0FA4" transform="translate(114,135)"/>
<path d="M0 0 C1.32 0.33 2.64 0.66 4 1 C1.74259377 3.33524782 -0.2805761 5.18705073 -3 7 C-5.1875 6.625 -5.1875 6.625 -7 6 C-5.75 4 -5.75 4 -4 2 C-2.68 2 -1.36 2 0 2 C0 1.34 0 0.68 0 0 Z " fill="#120412" transform="translate(60,22)"/>
<path d="M0 0 C-0.5 1.8125 -0.5 1.8125 -2 4 C-4.56072611 5.37162003 -7.15636384 6.39748699 -10 7 C-10.99 6.67 -11.98 6.34 -13 6 C-3.28571429 0 -3.28571429 0 0 0 Z " fill="#787777" transform="translate(113,153)"/>
<path d="M0 0 C-1.32 0.33 -2.64 0.66 -4 1 C-4 1.66 -4 2.32 -4 3 C-7.63 3 -11.26 3 -15 3 C-15 2.34 -15 1.68 -15 1 C-13.0641649 0.63684334 -11.12624752 0.28477269 -9.1875 -0.0625 C-8.10855469 -0.25972656 -7.02960938 -0.45695313 -5.91796875 -0.66015625 C-3 -1 -3 -1 0 0 Z " fill="#E51ADF" transform="translate(89,154)"/>
<path d="M0 0 C0.66 0.33 1.32 0.66 2 1 C-1.53613714 5.78775956 -5.14483704 10.46451416 -9 15 C-9.66 14.67 -10.32 14.34 -11 14 C-10.45730469 13.32453125 -9.91460937 12.6490625 -9.35546875 11.953125 C-8.64003906 11.06109375 -7.92460937 10.1690625 -7.1875 9.25 C-6.47980469 8.36828125 -5.77210938 7.4865625 -5.04296875 6.578125 C-3.32494998 4.41007071 -1.64626024 2.22271099 0 0 Z " fill="#898989" transform="translate(140,126)"/>
<path d="M0 0 C2 1 2 1 3.125 4.125 C3.97755199 7.90058738 4.15729024 11.14638912 4 15 C4.66 15 5.32 15 6 15 C6 16.65 6 18.3 6 20 C0.99063057 14.07983612 0.55919112 7.44607125 0 0 Z " fill="#462E42" transform="translate(133,39)"/>
<path d="M0 0 C1.65 0 3.3 0 5 0 C4.42655063 2.86724686 4.1385485 3.8614515 2 6 C-0.625 6.125 -0.625 6.125 -3 6 C-2.01 4.02 -1.02 2.04 0 0 Z " fill="#D812CB" transform="translate(50,33)"/>
<path d="M0 0 C0.66 0 1.32 0 2 0 C1.8125 1.8125 1.8125 1.8125 1 4 C-1.90696599 6.14197494 -3.35521088 7 -7 7 C-7 6.01 -7 5.02 -7 4 C-4.35261084 2.5393715 -3.10551666 2 0 2 C0 1.34 0 0.68 0 0 Z " fill="#0C0A0C" transform="translate(117,145)"/>
<path d="M0 0 C1.485 0.99 1.485 0.99 3 2 C3.51171875 5.2578125 3.51171875 5.2578125 3.6875 9.125 C3.75324219 10.40632813 3.81898438 11.68765625 3.88671875 13.0078125 C3.92410156 13.99523437 3.96148437 14.98265625 4 16 C3.566875 15.1028125 3.566875 15.1028125 3.125 14.1875 C1.95257974 11.80672208 1.95257974 11.80672208 0 9 C-0.1953125 6.73828125 -0.1953125 6.73828125 -0.125 4.3125 C-0.10695312 3.50425781 -0.08890625 2.69601563 -0.0703125 1.86328125 C-0.04710937 1.24839844 -0.02390625 0.63351563 0 0 Z " fill="#F531D7" transform="translate(136,65)"/>
<path d="M0 0 C3 3 3 3 5 6 C4.625 8.1875 4.625 8.1875 4 10 C3.34 9.67 2.68 9.34 2 9 C1.67 9.99 1.34 10.98 1 12 C0.67 8.04 0.34 4.08 0 0 Z " fill="#191519" transform="translate(142,66)"/>
<path d="M0 0 C0 0.99 0 1.98 0 3 C-0.92232422 3.27263672 -0.92232422 3.27263672 -1.86328125 3.55078125 C-2.67152344 3.80214844 -3.47976562 4.05351562 -4.3125 4.3125 C-5.51326172 4.67794922 -5.51326172 4.67794922 -6.73828125 5.05078125 C-9.07158715 5.84645728 -9.07158715 5.84645728 -10.54296875 7.66796875 C-11.02378906 8.10753906 -11.50460938 8.54710937 -12 9 C-14.1875 8.6875 -14.1875 8.6875 -16 8 C-14.41779413 7.03980636 -12.83418669 6.08192202 -11.25 5.125 C-9.92742187 4.32449219 -9.92742187 4.32449219 -8.578125 3.5078125 C-2.58031088 0 -2.58031088 0 0 0 Z " fill="#767777" transform="translate(76,12)"/>
<path d="M0 0 C2.0625 0.4375 2.0625 0.4375 4 1 C0.74610012 3.16926659 -0.13395957 3.24080049 -3.88671875 3.1953125 C-5.2934082 3.18564453 -5.2934082 3.18564453 -6.72851562 3.17578125 C-8.19321289 3.15064453 -8.19321289 3.15064453 -9.6875 3.125 C-10.67556641 3.11597656 -11.66363281 3.10695312 -12.68164062 3.09765625 C-15.12133765 3.0740843 -17.56054697 3.04118022 -20 3 C-20 2.67 -20 2.34 -20 2 C-19.42967041 1.97494385 -18.85934082 1.9498877 -18.27172852 1.92407227 C-15.70173843 1.80843451 -13.13214473 1.68556376 -10.5625 1.5625 C-9.66466797 1.52318359 -8.76683594 1.48386719 -7.84179688 1.44335938 C-6.98779297 1.40146484 -6.13378906 1.35957031 -5.25390625 1.31640625 C-4.46314697 1.27974854 -3.6723877 1.24309082 -2.85766602 1.20532227 C-0.98598559 1.19436743 -0.98598559 1.19436743 0 0 Z " fill="#6A2D65" transform="translate(90,155)"/>
<path d="M0 0 C0.99 0 1.98 0 3 0 C3 0.66 3 1.32 3 2 C3.99 2 4.98 2 6 2 C6 2.66 6 3.32 6 4 C6.99 4 7.98 4 9 4 C9.33 5.32 9.66 6.64 10 8 C8.0625 7.6875 8.0625 7.6875 6 7 C5.67 6.01 5.34 5.02 5 4 C4.01 4 3.02 4 2 4 C2 3.34 2 2.68 2 2 C1.34 2 0.68 2 0 2 C0 1.34 0 0.68 0 0 Z " fill="#9615AE" transform="translate(40,133)"/>
<path d="M0 0 C0.33 0 0.66 0 1 0 C0.64989059 8.19256018 0.64989059 8.19256018 -2.0625 11.5625 C-2.701875 12.036875 -3.34125 12.51125 -4 13 C-4.33 11.35 -4.66 9.7 -5 8 C-3.68 7.34 -2.36 6.68 -1 6 C-1.020625 5.195625 -1.04125 4.39125 -1.0625 3.5625 C-1 1 -1 1 0 0 Z " fill="#E116B4" transform="translate(132,115)"/>
<path d="M0 0 C3.50281042 4.67041389 3.5344992 6.41399038 4 12 C2.68 11.34 1.36 10.68 0 10 C0 6.7 0 3.4 0 0 Z " fill="#CA5CBD" transform="translate(136,55)"/>
<path d="M0 0 C0.66 0.33 1.32 0.66 2 1 C0.8125 3.9375 0.8125 3.9375 -1 7 C-3.6875 7.875 -3.6875 7.875 -6 8 C-5.65120368 4.74456771 -4.97866739 3.98126893 -2.4375 1.75 C-1.633125 1.1725 -0.82875 0.595 0 0 Z " fill="#170F17" transform="translate(48,30)"/>
<path d="M0 0 C0.99 0 1.98 0 3 0 C4.5625 2.8125 4.5625 2.8125 6 6 C5.67 6.99 5.34 7.98 5 9 C4.67 8.34 4.34 7.68 4 7 C1.97536745 6.34786708 1.97536745 6.34786708 0 6 C0 4.02 0 2.04 0 0 Z " fill="#9231A0" transform="translate(45,125)"/>
<path d="M0 0 C0.66 0 1.32 0 2 0 C3.31626692 3.61973402 4 6.09567131 4 10 C3.34 10 2.68 10 2 10 C-0.17364926 7.18230651 -1.08677021 5.7809319 -0.6875 2.1875 C-0.460625 1.465625 -0.23375 0.74375 0 0 Z " fill="#8C2E9C" transform="translate(35,115)"/>
<path d="M0 0 C0.99 0.495 0.99 0.495 2 1 C2.37890625 3.546875 2.37890625 3.546875 2.5625 6.75 C2.79453493 10.59515022 3.15708034 14.23820976 4 18 C3.01 17.67 2.02 17.34 1 17 C0.67 11.39 0.34 5.78 0 0 Z " fill="#7C2D74" transform="translate(128,16)"/>
<path d="M0 0 C0 0.99 0 1.98 0 3 C-1.7015625 3.2165625 -1.7015625 3.2165625 -3.4375 3.4375 C-6.80777201 3.61171478 -6.80777201 3.61171478 -8 5 C-9.66617115 5.04063832 -11.33388095 5.042721 -13 5 C-8.77614544 1.55834073 -5.49939416 0 0 0 Z " fill="#0F060F" transform="translate(97,156)"/>
<path d="M0 0 C-2.475 1.485 -2.475 1.485 -5 3 C-5 2.34 -5 1.68 -5 1 C-5.99 0.67 -6.98 0.34 -8 0 C-8 0.66 -8 1.32 -8 2 C-9.98 2.33 -11.96 2.66 -14 3 C-11.76348708 0.33338844 -10.38167613 -0.8886778 -7 -1.875 C-3.9038633 -2.0040057 -2.55503162 -1.67059759 0 0 Z " fill="#523B50" transform="translate(68,22)"/>
<path d="M0 0 C2.92891899 0.63558197 5.39562664 1.57580166 8.0625 2.9375 C8.73410156 3.27652344 9.40570313 3.61554688 10.09765625 3.96484375 C12 5 12 5 15 7 C9.299021 7.87707369 6.23874144 5.53793338 1.7578125 2.41015625 C1.17773438 1.94480469 0.59765625 1.47945312 0 1 C0 0.67 0 0.34 0 0 Z " fill="#797979" transform="translate(32,149)"/>
<path d="M0 0 C-0.33 0.99 -0.66 1.98 -1 3 C-4.63 3 -8.26 3 -12 3 C-12 2.34 -12 1.68 -12 1 C-10.56274129 0.83126522 -9.12518162 0.66509263 -7.6875 0.5 C-6.88699219 0.4071875 -6.08648437 0.314375 -5.26171875 0.21875 C-3 0 -3 0 0 0 Z " fill="#E463D6" transform="translate(109,90)"/>
<path d="M0 0 C2 3.75 2 3.75 2 6 C1.34 6 0.68 6 0 6 C0.33 7.98 0.66 9.96 1 12 C0.34 12 -0.32 12 -1 12 C-1.66 8.37 -2.32 4.74 -3 1 C-2.01 1.495 -2.01 1.495 -1 2 C-0.67 1.34 -0.34 0.68 0 0 Z " fill="#261E25" transform="translate(10,109)"/>
<path d="M0 0 C2 1 2 1 3.1875 4.3125 C3.90649268 7.57562063 4.20286847 8.99282882 3 12 C3 11.34 3 10.68 3 10 C2.34 10 1.68 10 1 10 C-0.60725635 6.78548731 -0.05748185 3.56387464 0 0 Z " fill="#BE57B0" transform="translate(130,33)"/>
<path d="M0 0 C2.475 0.99 2.475 0.99 5 2 C4 4 4 4 1.1875 5.1875 C-1.85961076 5.96421451 -3.13749363 6.10096399 -6 5 C-5.38125 4.731875 -4.7625 4.46375 -4.125 4.1875 C-1.7004767 3.04443152 -1.7004767 3.04443152 0 0 Z " fill="#D710BB" transform="translate(70,21)"/>
<path d="M0 0 C0.6875 1.6875 0.6875 1.6875 1 4 C-0.4375 6.75 -0.4375 6.75 -2 9 C-2.33 8.34 -2.66 7.68 -3 7 C-2.67 6.01 -2.34 5.02 -2 4 C-2.99 4 -3.98 4 -5 4 C-5 3.34 -5 2.68 -5 2 C-3.35 1.34 -1.7 0.68 0 0 Z " fill="#2F292E" transform="translate(144,113)"/>
<path d="M0 0 C0.66 0 1.32 0 2 0 C2 0.99 2 1.98 2 3 C-4.93 4.485 -4.93 4.485 -12 6 C-11 4 -11 4 -8.75 3.18359375 C-7.38875 2.81427734 -7.38875 2.81427734 -6 2.4375 C-2.71746634 1.73509107 -2.71746634 1.73509107 0 0 Z " fill="#C304AD" transform="translate(87,13)"/>
<path d="M0 0 C0.33 0.99 0.66 1.98 1 3 C2.65 2.67 4.3 2.34 6 2 C5.67 2.66 5.34 3.32 5 4 C2.6859378 4.73075648 0.35171131 5.40138258 -2 6 C-2 5.34 -2 4.68 -2 4 C-2.66 3.67 -3.32 3.34 -4 3 C-2.68 2.01 -1.36 1.02 0 0 Z " fill="#2B222C" transform="translate(109,149)"/>
<path d="M0 0 C0.33 0.66 0.66 1.32 1 2 C3.02463255 2.65213292 3.02463255 2.65213292 5 3 C5.33 4.65 5.66 6.3 6 8 C5.34 8 4.68 8 4 8 C4 7.34 4 6.68 4 6 C3.34 6 2.68 6 2 6 C0 3 0 3 0 0 Z " fill="#C524C1" transform="translate(18,125)"/>
<path d="M0 0 C0.99 0 1.98 0 3 0 C2.34 1.98 1.68 3.96 1 6 C0.34 6 -0.32 6 -1 6 C-1.33 7.32 -1.66 8.64 -2 10 C-2.6875 8.375 -2.6875 8.375 -3 6 C-1.5625 2.75 -1.5625 2.75 0 0 Z " fill="#ED0EEC" transform="translate(23,61)"/>
<path d="M0 0 C1.32 0 2.64 0 4 0 C4 0.66 4 1.32 4 2 C4.99 2 5.98 2 7 2 C6.67 3.65 6.34 5.3 6 7 C5.67 6.01 5.34 5.02 5 4 C4.34 4 3.68 4 3 4 C3 3.34 3 2.68 3 2 C2.01 2 1.02 2 0 2 C0 1.34 0 0.68 0 0 Z " fill="#F90CE1" transform="translate(129,59)"/>
<path d="M0 0 C-0.33 0.99 -0.66 1.98 -1 3 C-2.98 3 -4.96 3 -7 3 C-7 2.01 -7 1.02 -7 0 C-2.25 -1.125 -2.25 -1.125 0 0 Z " fill="#1B121B" transform="translate(83,12)"/>
<path d="M0 0 C0.66 0 1.32 0 2 0 C2 0.66 2 1.32 2 2 C3.32 2 4.64 2 6 2 C6 3.32 6 4.64 6 6 C5.01 6 4.02 6 3 6 C3 5.34 3 4.68 3 4 C2.34 4 1.68 4 1 4 C0.67 2.68 0.34 1.36 0 0 Z " fill="#DE05DD" transform="translate(26,133)"/>
<path d="M0 0 C1.32 1.32 2.64 2.64 4 4 C3.34 5.32 2.68 6.64 2 8 C1.67 7.34 1.34 6.68 1 6 C0.34 6.99 -0.32 7.98 -1 9 C-0.67 6.03 -0.34 3.06 0 0 Z " fill="#3E383E" transform="translate(8,77)"/>
<path d="M0 0 C0.66 0.33 1.32 0.66 2 1 C-0.00979059 4.01468588 -0.70736015 4.83789182 -4 6 C-6.1328125 5.546875 -6.1328125 5.546875 -8 5 C-6.71475739 4.13619741 -5.42157581 3.28419631 -4.125 2.4375 C-3.04605469 1.72400391 -3.04605469 1.72400391 -1.9453125 0.99609375 C-1.30335937 0.66738281 -0.66140625 0.33867187 0 0 Z " fill="#A6089C" transform="translate(68,21)"/>
<path d="M0 0 C1.32 0 2.64 0 4 0 C4 0.66 4 1.32 4 2 C4.66 2 5.32 2 6 2 C6 2.66 6 3.32 6 4 C4.35 4 2.7 4 1 4 C0.67 2.68 0.34 1.36 0 0 Z " fill="#D206CF" transform="translate(38,143)"/>
<path d="M0 0 C2.16874252 0.50603992 3.99967627 0.99983813 6 2 C6 2.66 6 3.32 6 4 C4.125 4.625 4.125 4.625 2 5 C1.34 4.34 0.68 3.68 0 3 C0 2.01 0 1.02 0 0 Z " fill="#170715" transform="translate(31,143)"/>
<path d="M0 0 C0.33 0 0.66 0 1 0 C1.3125 2.1875 1.3125 2.1875 1 5 C-1.5 7.8125 -1.5 7.8125 -4 10 C-4 5.75354935 -2.18249194 3.61475228 0 0 Z " fill="#6B6B6B" transform="translate(143,118)"/>
<path d="M0 0 C0.99 0.33 1.98 0.66 3 1 C3 3.97 3 6.94 3 10 C0.64551835 7.44931155 0.01672076 6.28982642 -0.1875 2.75 C-0.125625 1.8425 -0.06375 0.935 0 0 Z " fill="#D42BBD" transform="translate(126,19)"/>
<path d="M0 0 C1.32 0 2.64 0 4 0 C3.67 1.32 3.34 2.64 3 4 C1.35 4 -0.3 4 -2 4 C-1.34 2.68 -0.68 1.36 0 0 Z " fill="#130C13" transform="translate(67,17)"/>
<path d="M0 0 C2.64 0.33 5.28 0.66 8 1 C6 3 6 3 2.375 3.125 C1.26125 3.08375 0.1475 3.0425 -1 3 C-0.67 2.01 -0.34 1.02 0 0 Z " fill="#0B020C" transform="translate(105,4)"/>
<path d="M0 0 C0 1.32 0 2.64 0 4 C-0.66 4 -1.32 4 -2 4 C-2.33 4.66 -2.66 5.32 -3 6 C-3 5.01 -3 4.02 -3 3 C-3.66 3 -4.32 3 -5 3 C-5 2.34 -5 1.68 -5 1 C-2 0 -2 0 0 0 Z " fill="#D06FC6" transform="translate(132,127)"/>
<path d="M0 0 C2.46278801 2.46278801 2.99771255 4.70676982 4 8 C3.01 8 2.02 8 1 8 C-0.35439668 5.29120665 -0.06501451 2.99066732 0 0 Z " fill="#EC0AEC" transform="translate(18,119)"/>
</svg>
